<svg id="Layer_1" data-name="Layer 1" xmlns="http://www.w3.org/2000/svg" viewBox="0 0 24 22"><defs><style>.cls-1{fill-rule:evenodd;}</style></defs><path class="cls-1" d="M3,7.36,0,4.74,8.71,0l3.34,2.35L15.26,0,24,4.64,21,7.32h0l3,4.11-3,1.64V17.2L12,22,3,17.2V13.08l1,.55v3l7.5,4V12.71L9,16.35l-9-4.9L3,7.36Zm9.52,5.36V20.6l7.5-4v-3l-5,2.73-2.5-3.63Zm-11-1.6L8.69,15l1.84-2.69L3.3,8.61,1.48,11.12Zm12,1.25L15.31,15l7.21-3.93L20.7,8.61l-7.23,3.76ZM4,7.84l8-4.43,8,4.44L12,12,4,7.84ZM1.73,4.93,3.84,6.79l7.16-4L8.64,1.18,1.73,4.93ZM13,2.88l7.07,3.9,2.18-1.93L15.34,1.18,13,2.88Z"/></svg>