<svg xmlns="http://www.w3.org/2000/svg" width="77" height="80" viewBox="0 0 77 80">
  <g id="AskQ" transform="translate(-512 -2197)">
    <path id="Path_573" data-name="Path 573" d="M357.609,68.4,355.355,56.54a29.365,29.365,0,0,0,1.344-2.806A38.5,38.5,0,1,0,333.85,74.9l.514-9.166,8.175,9.7L336.326,62.38l7.728,7.2L354.945,80,348.2,66.066l-3.881-7.6,6.6,4.7ZM339.585,50.18,331.208,42l9.486,18.191L323.762,42l6.693,15.792a21.066,21.066,0,0,1-8.582,1.814c-11.952,0-21.653-9.955-21.653-22.256s9.7-22.229,21.656-22.229,21.656,9.955,21.656,22.239a21.353,21.353,0,0,1-1.505,8.709l8.784,15.691Z" transform="translate(229.152 2197)" fill="#a8c440"/>
  </g>
</svg>
