<?xml version="1.0" encoding="utf-8"?>
<!-- Generator: Adobe Illustrator 26.0.0, SVG Export Plug-In . SVG Version: 6.00 Build 0)  -->
<svg version="1.1" id="Device_Immunity" xmlns="http://www.w3.org/2000/svg" xmlns:xlink="http://www.w3.org/1999/xlink" x="0px"
	 y="0px" viewBox="0 0 76 80" style="enable-background:new 0 0 76 80;" xml:space="preserve">
<style type="text/css">
	.st0{fill:#003176;}
	.st1{fill:#002961;}
	.st2{fill:#003784;}
	.st3{fill:#0045A4;}
</style>
<path id="Path_483" class="st0" d="M49.6,35.7c-15.7,2.5-34,9-49.6,23.9V18.2C0,8.1,8.2,0,18.3,0h19.6C37.6,5.6,38.4,20.5,49.6,35.7
	z"/>
<path id="Path_484" class="st1" d="M76,18.2v16.3c-8.8-0.6-17.7-0.2-26.4,1.2C38.4,20.5,37.6,5.6,37.8,0h19.9C67.8,0,76,8.1,76,18.2
	L76,18.2z"/>
<path id="Path_485" class="st2" d="M76,34.5v23.3c-12.3-6.6-20.7-14.4-26.4-22.1C58.3,34.3,67.2,33.9,76,34.5L76,34.5z"/>
<path id="Path_486" class="st3" d="M76,57.8v4.1C76,71.9,67.8,80,57.7,80H18.3C8.2,80,0,71.9,0,61.8v-2.2
	c15.6-14.9,33.8-21.4,49.6-23.9C55.3,43.4,63.7,51.1,76,57.8z"/>
</svg>
