<svg version="1.2" baseProfile="tiny-ps" xmlns="http://www.w3.org/2000/svg" viewBox="0 0 76 80" width="76" height="80">
	<title>icon-02b-svg</title>
	<style>
		tspan { white-space:pre }
		.s0 { fill: #003176 } 
		.s1 { fill: #002961 } 
		.s2 { fill: #003784 } 
		.s3 { fill: #0045a4 } 
	</style>
	<path id="Path_483" class="s0" d="m49.6 35.7c-15.7 2.5-34 9-49.6 23.9v-41.4c0-10.1 8.2-18.2 18.3-18.2h19.6c-0.3 5.6 0.5 20.5 11.7 35.7z" />
	<path id="Path_484" class="s1" d="m76 18.2v16.3c-8.8-0.6-17.7-0.2-26.4 1.2c-11.2-15.2-12-30.1-11.8-35.7h19.9c10.1 0 18.3 8.1 18.3 18.2v0z" />
	<path id="Path_485" class="s2" d="m76 34.5v23.3c-12.3-6.6-20.7-14.4-26.4-22.1c8.7-1.4 17.6-1.8 26.4-1.2v0z" />
	<path id="Path_486" class="s3" d="m76 57.8v4.1c0 10-8.2 18.1-18.3 18.1h-39.4c-10.1 0-18.3-8.1-18.3-18.2v-2.2c15.6-14.9 33.8-21.4 49.6-23.9c5.7 7.7 14.1 15.4 26.4 22.1z" />
</svg>