<svg id="NED_Link" data-name="NED Link" xmlns="http://www.w3.org/2000/svg" width="76" height="80" viewBox="0 0 76 80">
  <g id="Layer_1" data-name="Layer 1">
    <path id="Path_495" data-name="Path 495" d="M49.59,35.673C33.849,38.218,15.551,44.691,0,59.6V18.182A18.226,18.226,0,0,1,18.269,0H37.828C37.635,5.644,38.387,20.531,49.59,35.673Z" fill="#d02f69"/>
    <path id="Path_496" data-name="Path 496" d="M141.661,18.182v16.28a117.922,117.922,0,0,0-26.41,1.211C104.048,20.531,103.3,5.644,103.489,0h19.9a18.226,18.226,0,0,1,18.269,18.182Z" transform="translate(-65.661)" fill="#7a1c3d"/>
    <path id="Path_497" data-name="Path 497" d="M162.13,94.314v23.3c-12.332-6.64-20.717-14.4-26.41-22.087a117.922,117.922,0,0,1,26.41-1.211Z" transform="translate(-86.13 -59.852)" fill="#842755"/>
    <path id="Path_498" data-name="Path 498" d="M76,120.187v4.058a18.226,18.226,0,0,1-18.269,18.182H18.269A18.226,18.226,0,0,1,0,124.245v-2.222C15.551,107.115,33.849,100.645,49.59,98.1,55.283,105.791,63.668,113.547,76,120.187Z" transform="translate(0 -62.427)" fill="#e24291"/>
  </g>
</svg>
