<?xml version="1.0" encoding="utf-8"?>
<!-- Generator: Adobe Illustrator 25.4.1, SVG Export Plug-In . SVG Version: 6.00 Build 0)  -->
<svg version="1.1" id="Layer_1" xmlns="http://www.w3.org/2000/svg" xmlns:xlink="http://www.w3.org/1999/xlink" x="0px" y="0px"
	 viewBox="0 0 172 48" style="enable-background:new 0 0 172 48;" xml:space="preserve">
<style type="text/css">
	.st0{fill:#0B2F4D;}
</style>
<g id="Inbox" transform="translate(-21.1 -0.9)">
	<path id="Path_521" class="st0" d="M86.2,0.9H21.1v48h65.1V0.9z M119.9,24.7c-0.1-2.1,0.3-4.2,1.1-6.2c0.8-1.8,1.9-3.5,3.3-4.9
		c3.1-3,7.2-4.6,11.5-4.4c2.2-0.1,4.4,0.3,6.5,1.1c1.9,0.8,3.6,1.9,5.1,3.3c1.4,1.4,2.5,3,3.3,4.9c0.9,1.9,1.3,4,1.3,6.2
		c0,2.1-0.4,4.1-1.3,6c-0.7,1.8-1.8,3.5-3.3,4.9c-1.4,1.5-3.2,2.6-5.1,3.3c-2.1,0.8-4.3,1.2-6.5,1.1c-2.2,0.1-4.3-0.3-6.4-1.1
		c-1.9-0.7-3.7-1.8-5.1-3.3c-1.4-1.4-2.5-3.1-3.3-4.9C120.2,28.8,119.8,26.8,119.9,24.7z M40.6,9.9v29.4h-7.5V9.9H40.6z M46.6,39.3
		V9.9h7.5L68,27.8V9.9h7.5v29.4H68L54.1,21.4v17.9H46.6z M94.9,9.9H106c2.2-0.1,4.4,0.6,6.1,2c1.4,1.5,2.2,3.5,2,5.6
		c0.1,1.3-0.2,2.6-0.7,3.7c-0.6,1-1.4,1.8-2.4,2.4c0.9,0.1,1.9,0.4,2.7,0.9c0.7,0.4,1.4,0.9,1.8,1.6c0.5,0.7,0.9,1.4,1.1,2.1
		c0.2,0.8,0.3,1.6,0.3,2.4c0,1.3-0.2,2.5-0.7,3.7c-0.5,1-1.2,1.8-2,2.6c-0.9,0.8-2,1.4-3.1,1.7c-1.4,0.4-2.8,0.5-4.2,0.6h-12V9.9z
		 M163.4,23.7l-8.9-13.8h9.2l4,7.6l4.8-7.6h9.3l-9.6,13.8l10.8,15.6h-9.1l-5.8-9.6l-6.8,9.6h-9.1L163.4,23.7L163.4,23.7z
		 M102.4,33.3h1.7c1.4,0.2,2.7-0.1,4-0.7c0.8-0.5,1.3-1.3,1.3-2.3c0-1-0.4-1.9-1.3-2.4c-1.2-0.6-2.6-0.8-4-0.7h-1.7V33.3z
		 M127.7,24.7c0,1.1,0.3,2.2,0.7,3.2c0.8,1.9,2.3,3.5,4.2,4.3c2.1,0.8,4.3,0.8,6.4,0c1-0.4,1.8-1,2.5-1.7c0.8-0.7,1.4-1.6,1.8-2.6
		c0.4-1,0.6-2.1,0.6-3.2c0-1.1-0.1-2.3-0.6-3.3c-0.4-1-1.1-1.8-1.8-2.6c-0.7-0.7-1.6-1.3-2.5-1.7c-2.1-0.8-4.3-0.8-6.4,0
		c-1.9,0.8-3.5,2.4-4.2,4.3C127.9,22.4,127.7,23.5,127.7,24.7L127.7,24.7z M102.4,21.5h1.4c2.3,0,3.5-1,3.5-2.9s-1.3-2.9-3.5-2.9
		h-1.4V21.5z"/>
</g>
<rect x="65.1" class="st0" width="106.9" height="2.2"/>
<rect x="63.8" y="45.8" class="st0" width="108.2" height="2.2"/>
<rect x="146.9" y="22.9" transform="matrix(6.123234e-17 -1 1 6.123234e-17 146.9075 194.904)" class="st0" width="48" height="2.2"/>
</svg>
