<svg xmlns="http://www.w3.org/2000/svg" width="187" height="48" viewBox="0 0 187 48">
  <g id="Maili" transform="translate(-25 -2.3)">
    <path id="Path_566" data-name="Path 566" d="M212,14.336A12.036,12.036,0,0,0,199.962,2.3H141.642A12.179,12.179,0,0,0,129.6,14.336V38.264A12.036,12.036,0,0,0,141.642,50.3h58.321A11.893,11.893,0,0,0,212,38.264ZM139.062,38.264a3.582,3.582,0,0,1,.287-1.719,5.158,5.158,0,0,1,1-1.433l1.433-1a3.582,3.582,0,0,1,1.719-.287,3.869,3.869,0,0,1,1.863.287l1.433,1a5.158,5.158,0,0,1,1,1.433,7.164,7.164,0,0,1,.287,1.719,7.307,7.307,0,0,1-.287,1.863,8.739,8.739,0,0,1-1,1.433l-1.433,1-1.863.287-1.719-.287-1.433-1a8.74,8.74,0,0,1-1-1.433,3.869,3.869,0,0,1-.287-1.863Zm47-5.015c0,3.009,1.433,4.585,4.3,4.585a3.869,3.869,0,0,0,3.439-1.863h6.735c-1.29,4.585-4.729,6.734-10.174,6.734a12.611,12.611,0,0,1-4.729-.716,9.171,9.171,0,0,1-3.582-2.149,9.027,9.027,0,0,1-2.293-3.3,10.745,10.745,0,0,1-.716-4.442,11.605,11.605,0,0,1,.717-4.442,10.889,10.889,0,0,1,2.149-3.3,10.317,10.317,0,0,1,3.582-2.293,14.575,14.575,0,0,1,9.028,0,8.6,8.6,0,0,1,3.439,2.293,7.88,7.88,0,0,1,2.149,3.439,12.608,12.608,0,0,1,.716,4.728v.716ZM78.879,22.073H85.9V41.989H78.879V39.84a7.738,7.738,0,0,1-6.162,2.866,9.6,9.6,0,0,1-4.012-.86,9.887,9.887,0,0,1-3.152-2.292,10.889,10.889,0,0,1-2.149-3.3,13.467,13.467,0,0,1-.716-4.3,12.464,12.464,0,0,1,.716-4.012,10.6,10.6,0,0,1,2.006-3.3,11.75,11.75,0,0,1,3.152-2.292,9.745,9.745,0,0,1,4.156-.86,8.311,8.311,0,0,1,6.162,2.579V22.073ZM167.864,9.894h7.165V41.989h-7.165V39.84a7.165,7.165,0,0,1-6.018,2.866,9.172,9.172,0,0,1-4.012-.86,8.6,8.6,0,0,1-3.152-2.292,8.739,8.739,0,0,1-2.149-3.3,10.458,10.458,0,0,1-.716-4.3,9.455,9.455,0,0,1,.716-4.012,8.453,8.453,0,0,1,2.006-3.3,8.6,8.6,0,0,1,3.152-2.292,9.6,9.6,0,0,1,4.012-.86,7.882,7.882,0,0,1,6.162,2.579V9.894ZM25,22.073h7.021v2.436a9.315,9.315,0,0,1,6.448-2.722A7.738,7.738,0,0,1,45.2,25.512a7.738,7.738,0,0,1,6.735-3.725,7.452,7.452,0,0,1,2.579.43,5.445,5.445,0,0,1,2.149,1.29A5.3,5.3,0,0,1,58.1,25.8a7.593,7.593,0,0,1,.573,3.3v12.9H51.653V32.246a12.894,12.894,0,0,0-.287-2.579,3.3,3.3,0,0,0-.573-1.433,1.72,1.72,0,0,0-1-.716l-1.146-.287c-2.149,0-3.3,1.719-3.3,5.015v9.743H38.326V32.246a12.9,12.9,0,0,0-.287-2.579,5.158,5.158,0,0,0-.573-1.576,2.149,2.149,0,0,0-.86-.716l-1.433-.287-1.146.287a2.579,2.579,0,0,0-1.146.716,4.011,4.011,0,0,0-.573,1.576,6.3,6.3,0,0,0-.287,2.579v9.743H25ZM109.544,9.894V41.989h-7.021V9.894ZM97.65,22.073V41.989H90.629V22.073Zm23.644,0V41.989h-7.021V22.073Zm-51.3,9.886a7.307,7.307,0,0,0,.287,1.863,5.158,5.158,0,0,0,1,1.433l1.433,1a3.869,3.869,0,0,0,1.863.287,3.583,3.583,0,0,0,1.72-.287l1.433-1a5.158,5.158,0,0,0,1-1.433,7.163,7.163,0,0,0,.287-1.719,6.16,6.16,0,0,0-.287-1.719,5.875,5.875,0,0,0-1-1.576,4.729,4.729,0,0,0-1.433-.86,3.869,3.869,0,0,0-1.72-.43,4.012,4.012,0,0,0-1.863.43,4.729,4.729,0,0,0-1.433.86,8.739,8.739,0,0,0-1,1.433,7.164,7.164,0,0,0-.287,1.719Zm89.129,0a3.868,3.868,0,0,0,.287,1.863,5.157,5.157,0,0,0,1,1.433l1.433,1a3.583,3.583,0,0,0,1.72.287,3.869,3.869,0,0,0,1.863-.287l1.433-1a4.727,4.727,0,0,0,.86-1.433,3.868,3.868,0,0,0,.43-1.719,3.438,3.438,0,0,0-.43-1.719,5.588,5.588,0,0,0-.86-1.576,4.728,4.728,0,0,0-1.433-.86,4.012,4.012,0,0,0-1.863-.43,3.869,3.869,0,0,0-1.72.43,4.729,4.729,0,0,0-1.433.86,8.741,8.741,0,0,0-1,1.433A7.164,7.164,0,0,0,159.124,31.959Zm35.25-2.722a4.585,4.585,0,0,0-1.433-2.436,4.729,4.729,0,0,0-2.723-.86,3.726,3.726,0,0,0-2.579.86,4.155,4.155,0,0,0-1.433,2.436ZM90.2,14.479a6.16,6.16,0,0,1,.287-1.576l.86-1.146a3.439,3.439,0,0,1,1.29-.86,2.866,2.866,0,0,1,1.576-.43,2.723,2.723,0,0,1,1.433.43,2.149,2.149,0,0,1,1.29.86,2.293,2.293,0,0,1,.86,1.146,3.152,3.152,0,0,1,.287,1.576,3.152,3.152,0,0,1-.287,1.576,2.293,2.293,0,0,1-.86,1.146,2.149,2.149,0,0,1-1.29.86,2.723,2.723,0,0,1-1.433.43,2.866,2.866,0,0,1-1.576-.43,3.439,3.439,0,0,1-1.29-.86l-.86-1.146a6.16,6.16,0,0,1-.287-1.576Zm23.644,0a6.161,6.161,0,0,1,.287-1.576l.86-1.146a3.439,3.439,0,0,1,1.29-.86,2.866,2.866,0,0,1,1.576-.43,2.436,2.436,0,0,1,1.433.43,2.149,2.149,0,0,1,1.29.86,2.293,2.293,0,0,1,.86,1.146,3.152,3.152,0,0,1,.287,1.576,3.152,3.152,0,0,1-.287,1.576,2.292,2.292,0,0,1-.86,1.146,2.149,2.149,0,0,1-1.29.86,2.436,2.436,0,0,1-1.433.43,2.866,2.866,0,0,1-1.576-.43,3.439,3.439,0,0,1-1.29-.86l-.86-1.146a6.16,6.16,0,0,1-.287-1.576Z" transform="translate(0 0)" fill="#298b7a"/>
  </g>
</svg>
