<?xml version="1.0" encoding="utf-8"?>
<!-- Generator: Adobe Illustrator 25.4.1, SVG Export Plug-In . SVG Version: 6.00 Build 0)  -->
<svg version="1.1" id="Layer_1" xmlns="http://www.w3.org/2000/svg" xmlns:xlink="http://www.w3.org/1999/xlink" x="0px" y="0px"
	 viewBox="0 0 102 80" style="enable-background:new 0 0 102 80;" xml:space="preserve">
<style type="text/css">
	.st0{fill:#1F619E;}
	.st1{fill:#FFFFFF;}
</style>
<rect y="-0.1" class="st0" width="102" height="80.2"/>
<rect x="2.2" y="40" class="st1" width="97.6" height="38.1"/>
<path id="Path_567" class="st1" d="M7,20.6c0-1.6,0.3-3.2,1-4.7c0.6-1.4,1.4-2.6,2.5-3.7c1.1-1.1,2.5-2,4-2.5c1.6-0.6,3.2-1,4.9-1
	c1.7,0,3.4,0.3,5,1c1.5,0.6,2.8,1.4,4,2.5c1.1,1.1,1.9,2.3,2.5,3.7c1.3,2.9,1.3,6.3,0,9.2c-0.6,1.4-1.4,2.7-2.5,3.8
	c-1.2,1-2.5,1.8-4,2.4c-1.6,0.6-3.3,1-5,1c-3.3,0-6.4-1.2-8.9-3.3C8.3,26.7,7,23.8,7,20.6z M70.6,14.4h-7v3.7h6.6V23h-6.6v3.8h7v4.9
	H57.8V9.5h12.7V14.4L70.6,14.4z M93.4,31.7H86l-5.5-8.6v8.6h-5.8V9.5h9c1.1,0,2.2,0.1,3.2,0.5c0.9,0.3,1.7,0.8,2.3,1.6
	c0.6,0.6,1.1,1.3,1.4,2.1c0.3,0.8,0.4,1.7,0.5,2.6c0,1.5-0.4,3-1.3,4.2c-1,1-2.2,1.8-3.6,2L93.4,31.7z M38.4,9.5L43.8,23l5.4-13.5
	h6.2l-9.4,22.2h-4.7L32,9.5H38.4z M13.1,20.6c0,0.8,0.1,1.6,0.5,2.4c0.3,0.7,0.8,1.4,1.4,1.9c0.5,0.6,1.2,1.1,1.9,1.3
	c0.8,0.3,1.6,0.5,2.4,0.5c0.8,0,1.6-0.1,2.4-0.5c0.8-0.3,1.5-0.7,2-1.3c0.6-0.5,1.1-1.2,1.4-1.9c0.3-0.7,0.5-1.6,0.5-2.4
	c0-0.9-0.1-1.7-0.5-2.5c-0.3-0.7-0.8-1.4-1.4-1.9c-0.6-0.6-1.3-1-2-1.3c-0.8-0.3-1.6-0.4-2.4-0.5c-0.8,0-1.6,0.2-2.4,0.5
	c-0.7,0.3-1.4,0.7-1.9,1.3c-0.6,0.5-1.1,1.2-1.4,1.9C13.2,18.9,13,19.8,13.1,20.6L13.1,20.6z M80.5,19.4h1.1
	c0.9,0.1,1.9-0.2,2.6-0.7c0.6-0.5,1-1.2,1-2c0-0.8-0.3-1.6-1-2c-0.8-0.5-1.7-0.8-2.6-0.7h-1.1V19.4z"/>
<path id="Path_567_00000023991885826025323060000012987185763992596632_" class="st0" d="M75,47.8v24.4h-6.4V47.8H75z M86.5,47.8v19
	h7.7v5.4h-14V47.8H86.5z M57.6,67.9h-9.1L47,72.2h-6.8l9.4-24.4h7l9.4,24.4H59L57.6,67.9z M7.8,72.2L12,47.8h6.4l4.8,12.9l4.9-12.9
	h6.4l4.1,24.4h-6.4l-2-14.1l-5.8,14.1h-2.5l-5.5-14.1l-2.2,14.1H7.8z M55.9,63.1L53,55l-2.9,8.1H55.9z"/>
</svg>
