<svg xmlns="http://www.w3.org/2000/svg" width="79.992" height="80" viewBox="0 0 79.992 80">
  <g id="QR_Code" data-name="QR Code" transform="translate(-7 -5)">
    <g id="Rectangle_573_copy_2" data-name="Rectangle 573 copy 2" transform="translate(7 5.042)" style="mix-blend-mode: normal;isolation: isolate">
      <g id="Rectangle_573_copy_2-2" data-name="Rectangle 573 copy 2" transform="translate(0 0)">
        <path id="Path_518" data-name="Path 518" d="M86.962,52.8c0-1.793-.616-2.463-2.379-2.7l-29.573.042c-2.266,0-2.932.666-2.932,2.932V82.13c0,.528.067,1.06.1,1.587a2.625,2.625,0,0,0,2.542,1.34H84.382c1.822,0,2.593-.766,2.593-2.588Q87,67.622,86.962,52.8ZM81.643,80.828q-12.112-.05-24.225,0c-.871,0-1.114-.239-1.1-1.11.046-4.037,0-8.075,0-12.112s.025-8.075,0-12.112c0-.875.239-1.106,1.106-1.1q12.112.05,24.225,0c.875,0,1.106.243,1.1,1.106q-.05,12.117,0,24.229c0,.863-.243,1.093-1.106,1.089ZM38.5,50.149H10.443c-2.9,0-3.4.5-3.405,3.384L7,82.926c.532,1.709,1.026,2.128,2.865,2.128h29.41c1.91,0,2.655-.754,2.668-2.655,0-2.392.029-4.787.038-7.183q0-10.843-.034-21.687c0-2.873-.519-3.388-3.43-3.392Zm-.8,29.573c0,.875-.243,1.11-1.11,1.106q-12.112-.05-24.233,0c-.875,0-1.11-.243-1.1-1.11.046-4.084,0-8.167,0-12.251,0-4,.025-7.991,0-11.983,0-.875.243-1.11,1.11-1.106q12.112.05,24.233,0c.871,0,1.106.239,1.1,1.106q-.029,12.108.013,24.225ZM9.844,40H39.162c2.094,0,2.789-.708,2.789-2.8V7.889c0-2.094-.712-2.785-2.8-2.789H9.831c-2.094,0-2.8.716-2.8,2.8V37.22C7.054,39.293,7.766,40,9.844,40ZM12.386,9.326c4.084.042,8.163.021,12.246.021H36.477c.838,0,1.256.1,1.231,1.118q-.067,12.112,0,24.225c0,.892-.272,1.089-1.118,1.089q-12.112-.046-24.221,0c-.9,0-1.093-.289-1.093-1.127q.046-12.112,0-24.221c-.013-.909.264-1.114,1.11-1.106ZM32.1,14.85H16.792V30.163H32.1Zm-15.312,60.4H32.1V59.924H16.792Zm45.074,0H77.191V59.924H61.866Z" transform="translate(-7 -5.1)" fill="#0645a3"/>
      </g>
    </g>
    <g id="Shape_7_copy" data-name="Shape 7 copy" transform="translate(52.056 5)" style="mix-blend-mode: normal;isolation: isolate">
      <g id="Shape_7_copy-2" data-name="Shape 7 copy">
        <path id="Path_519" data-name="Path 519" d="M147.364,20.275c-2.132.025-4.259.021-6.387.084a2.2,2.2,0,0,0-2.4,2.14,2.166,2.166,0,0,0,2.4,2.094c1.068.025,2.132.046,3.2,0,.779-.038,1.093.159,1.076,1.022q-.071,4.523,0,9.055c0,.838-.218,1.055-1.043,1.043-2.969-.054-5.947-.071-8.921,0-.993.021-1.152-.356-1.143-1.227.046-3.284,0-6.571,0-9.855V7.714c0-1.83-.741-2.66-2.391-2.664Q124.387,5,117,5.042a2.144,2.144,0,0,0-2.4,2.387q-.038,7.388,0,14.785a2.119,2.119,0,0,0,2.387,2.383c2.04.034,4.084.029,6.123,0a2.154,2.154,0,0,0,2.4-2.094,2.2,2.2,0,0,0-2.4-2.14c-1.064-.046-2.132-.05-3.2,0-.762.038-1.1-.126-1.085-1.005q.075-4.532,0-9.055c0-.838.264-1.035,1.055-1.022,2.974.046,5.947.054,8.921,0,.859,0,1.148.218,1.131,1.106-.05,3.108-.021,6.215-.021,9.323V37.3c0,1.922.762,2.639,2.672,2.66,1.022,0,2.04.025,3.062.038l10.889-.038c2.32,0,2.961-.658,2.961-3.02V23.261C149.517,21.334,149.152,20.865,147.364,20.275ZM140.751,9.289c.616.038,1.256,0,1.855,0,2.655-.025,2.655-.025,2.634,2.563V13.31c0,1.675.448,2.228,2.123,2.689,1.675-.452,2.128-1,2.136-2.676V7.747c0-1.855-.557-2.412-2.366-2.747-2.119,0-4.243,0-6.362.042a2.119,2.119,0,0,0-.021,4.239ZM123.244,35.7c-1.152-.034-2.308-.046-3.46,0-.775.046-.988-.235-.955-.98a35.378,35.378,0,0,0,0-3.589,2.115,2.115,0,1,0-4.23,0c-.05,1.064,0,2.128,0,3.191h0v3.367a2.125,2.125,0,0,0,2.278,2.241q3.191.069,6.383,0a2.119,2.119,0,1,0-.017-4.23Z" transform="translate(-114.577 -5)" fill="#e28706"/>
      </g>
    </g>
  </g>
</svg>
