<svg id="Layer_1" data-name="Layer 1" xmlns="http://www.w3.org/2000/svg" viewBox="0 0 322 48"><defs><style>.cls-1{fill:#a8c440;}.cls-2{fill:#636467;}</style></defs><title>aikq immunity</title><path class="cls-1" d="M96.74,40.51l-1.26-6.64a17.27,17.27,0,0,0,.75-1.57,21.57,21.57,0,1,0-12.8,11.85L83.72,39l4.58,5.43-3.48-7.31,4.33,4L95.25,47,91.47,39.2,89.3,34.94,93,37.58ZM86.65,30.31,82,25.72l5.31,10.19L77.79,25.72l3.74,8.85a11.68,11.68,0,0,1-4.8,1A12.29,12.29,0,0,1,64.6,23.12a12.13,12.13,0,1,1,24.26,0A12.1,12.1,0,0,1,88,28l4.92,8.79Z"/><path class="cls-2" d="M16.85,17.13,16.36,20c-.94-2.27-3.5-3.42-5.83-3.42-4.22,0-8.32,4.08-8.85,10.8-.47,5.94,3.06,9,5.34,9s5.28.21,7.45-2.17h0L13.76,36h3.89L21.2,17.12ZM9.3,33.59c-3,0-4.7-1.7-4.6-4.43s1.9-9.66,6.08-9.66a4.86,4.86,0,0,1,3.28,1.17,5.15,5.15,0,0,1,1.61,4.53C14.66,32.78,12.15,33.59,9.3,33.59Z"/><polygon class="cls-2" points="30.69 17.13 27.07 36.01 22.66 36.01 26.36 17.13 30.69 17.13"/><polygon class="cls-2" points="42.88 25.23 48.7 36.02 44.45 36.02 40.71 27.75 36.95 30.85 36.04 36.02 31.63 36.02 36.38 9.59 40.71 9.59 37.9 25.49 45.87 17.25 50.86 17.25 42.88 25.23"/><polygon class="cls-2" points="26.68 14.14 27.78 9.59 32.18 9.59 31.08 14.14 26.68 14.14"/><path d="M115.27,30.2a4.17,4.17,0,0,1-.22-1.07,3.2,3.2,0,0,1-2.53,1.26,3,3,0,0,1-2.16-.85,2.93,2.93,0,0,1-.84-2.15,3,3,0,0,1,1.06-2.45,4.48,4.48,0,0,1,3-.88H115v-.79a2.1,2.1,0,0,0-.48-1.45,1.75,1.75,0,0,0-1.4-.53,2,2,0,0,0-1.37.46,1.42,1.42,0,0,0-.55,1.13H109.7a2.63,2.63,0,0,1,.47-1.46,3.43,3.43,0,0,1,1.29-1.12,3.92,3.92,0,0,1,1.78-.41,3.23,3.23,0,0,1,2.41.88,3.34,3.34,0,0,1,.9,2.4v4.66a6.64,6.64,0,0,0,.31,2.22v.15Zm-2.53-1.32a2.44,2.44,0,0,0,1.36-.42,2.41,2.41,0,0,0,.93-1.1V25.29h-1.19c-1.87,0-2.8.62-2.8,1.86a1.67,1.67,0,0,0,.48,1.27A1.68,1.68,0,0,0,112.74,28.88Z"/><path d="M130.62,25.25a6.66,6.66,0,0,1-.93,3.72,2.86,2.86,0,0,1-2.51,1.42,3.08,3.08,0,0,1-2.55-1.17v4.87H123.1v-14h1.39l.08,1.12a3,3,0,0,1,2.58-1.31,2.93,2.93,0,0,1,2.54,1.38,6.74,6.74,0,0,1,.93,3.82Zm-1.52-.2a4.9,4.9,0,0,0-.64-2.7,2,2,0,0,0-1.76-1,2.2,2.2,0,0,0-2.07,1.39v4.84A2.2,2.2,0,0,0,126.71,29a2,2,0,0,0,1.74-1A5.43,5.43,0,0,0,129.1,25.05Z"/><path d="M136.85,21.63a4.35,4.35,0,0,0-.74-.06,2,2,0,0,0-2,1.45V30.2h-1.52V20.08H134l0,1.17a2.31,2.31,0,0,1,2.12-1.36,1.44,1.44,0,0,1,.67.13Z"/><path d="M137.68,25a6.69,6.69,0,0,1,.52-2.67,4.21,4.21,0,0,1,1.43-1.83,3.72,3.72,0,0,1,5,.78,6,6,0,0,1,1.12,3.81v.12a6.73,6.73,0,0,1-.49,2.65,4.26,4.26,0,0,1-1.43,1.83,3.71,3.71,0,0,1-5.05-.78,5.93,5.93,0,0,1-1.13-3.78Zm1.53.21a4.74,4.74,0,0,0,.69,2.7,2.12,2.12,0,0,0,1.84,1,2.1,2.1,0,0,0,1.84-1,5.18,5.18,0,0,0,.68-2.9,4.77,4.77,0,0,0-.69-2.69,2.14,2.14,0,0,0-1.85-1,2.12,2.12,0,0,0-1.82,1A5.19,5.19,0,0,0,139.21,25.25Z"/><path d="M147.32,25.05a6.54,6.54,0,0,1,1-3.74,3.05,3.05,0,0,1,5-.2V15.83h1.52V30.2h-1.4l-.07-1.09A3,3,0,0,1,148.3,29a6.6,6.6,0,0,1-1-3.76Zm1.52.2a4.89,4.89,0,0,0,.63,2.69,1.94,1.94,0,0,0,1.72,1,2.23,2.23,0,0,0,2.12-1.48V22.79a2.23,2.23,0,0,0-2.1-1.43,2,2,0,0,0-1.74,1A5.47,5.47,0,0,0,148.84,25.25Z"/><path d="M162.68,29.2a3,3,0,0,1-2.6,1.19,2.61,2.61,0,0,1-2.17-.94,4.42,4.42,0,0,1-.75-2.79V20.08h1.52v6.54c0,1.53.55,2.3,1.64,2.3a2.26,2.26,0,0,0,2.32-1.48V20.08h1.52V30.2h-1.45Z"/><path d="M170,29a2,2,0,0,0,1.42-.56,2.06,2.06,0,0,0,.68-1.4h1.44a3.35,3.35,0,0,1-.53,1.65,3.54,3.54,0,0,1-1.29,1.26,3.4,3.4,0,0,1-1.72.47A3.48,3.48,0,0,1,167.15,29a6,6,0,0,1-1.07-3.78v-.29a6.81,6.81,0,0,1,.48-2.63,4,4,0,0,1,1.36-1.78,3.52,3.52,0,0,1,2.11-.64,3.32,3.32,0,0,1,2.49,1,3.91,3.91,0,0,1,1.06,2.65h-1.44a2.58,2.58,0,0,0-.65-1.62,1.93,1.93,0,0,0-1.46-.63,2,2,0,0,0-1.79,1A4.91,4.91,0,0,0,167.6,25v.32a4.86,4.86,0,0,0,.63,2.7A2.06,2.06,0,0,0,170,29Z"/><path d="M177.35,17.63v2.45H179v1.34h-1.66V27.7a1.5,1.5,0,0,0,.23.91.83.83,0,0,0,.75.31,3,3,0,0,0,.72-.12v1.4a4,4,0,0,1-1.16.19,1.8,1.8,0,0,1-1.54-.71,3.25,3.25,0,0,1-.52-2V21.42h-1.62V20.08h1.62V17.63Z"/><path d="M184.56,25a6.69,6.69,0,0,1,.51-2.67,4.21,4.21,0,0,1,1.43-1.83,3.72,3.72,0,0,1,5,.78,6,6,0,0,1,1.13,3.81v.12a6.73,6.73,0,0,1-.5,2.65,4.24,4.24,0,0,1-1.42,1.83,3.59,3.59,0,0,1-2.13.66A3.54,3.54,0,0,1,185.68,29a5.93,5.93,0,0,1-1.12-3.78Zm1.52.21a4.74,4.74,0,0,0,.69,2.7,2.12,2.12,0,0,0,1.84,1,2.1,2.1,0,0,0,1.84-1,5.18,5.18,0,0,0,.68-2.9,4.77,4.77,0,0,0-.69-2.69,2.13,2.13,0,0,0-1.85-1,2.09,2.09,0,0,0-1.81,1A5.18,5.18,0,0,0,186.08,25.25Z"/><path d="M195.31,30.2V21.42h-1.4V20.08h1.4V19a3.78,3.78,0,0,1,.77-2.52,2.7,2.7,0,0,1,2.16-.88,3.68,3.68,0,0,1,1,.15l-.08,1.4a3.62,3.62,0,0,0-.82-.09,1.38,1.38,0,0,0-1.14.5,2.17,2.17,0,0,0-.41,1.41v1.07h1.9v1.34h-1.9V30.2Z"/><path d="M208.46,30.39A4.09,4.09,0,0,1,205.27,29,5.23,5.23,0,0,1,204,25.38v-.26a6.92,6.92,0,0,1,.52-2.73A4.28,4.28,0,0,1,206,20.54a3.75,3.75,0,0,1,2.17-.65,3.49,3.49,0,0,1,2.87,1.31,5.79,5.79,0,0,1,1.05,3.71V26h-5.67a2.66,2.66,0,0,0,.7,1.59,1.94,1.94,0,0,0,1.47.6,2.44,2.44,0,0,0,2.14-1.14l1.17,1.49a3.67,3.67,0,0,1-1.45,1.34A4.28,4.28,0,0,1,208.46,30.39Zm-.27-8.32a1.39,1.39,0,0,0-1.15.55,3,3,0,0,0-.56,1.56h3.3V24a2.22,2.22,0,0,0-.42-1.4A1.45,1.45,0,0,0,208.19,22.07Z"/><path d="M215.7,20.08l.07,1.13a3,3,0,0,1,2.56-1.32,2.36,2.36,0,0,1,2.36,1.54,3,3,0,0,1,2.67-1.54,2.5,2.5,0,0,1,2.15,1,4.85,4.85,0,0,1,.71,2.88V30.2h-2.38V23.74a2.07,2.07,0,0,0-.3-1.25,1.21,1.21,0,0,0-1-.4A1.52,1.52,0,0,0,221,23.25v7h-2.37V23.75a2,2,0,0,0-.31-1.27,1.23,1.23,0,0,0-1-.39,1.53,1.53,0,0,0-1.47.95V30.2h-2.37V20.08Z"/><path d="M233.2,30.2a3.33,3.33,0,0,1-.24-.91,2.72,2.72,0,0,1-2.24,1.1,3,3,0,0,1-3-3,3,3,0,0,1,1.05-2.47,4.64,4.64,0,0,1,3-.87h1.09v-.58a1.85,1.85,0,0,0-.31-1.13,1.18,1.18,0,0,0-1-.42,1.28,1.28,0,0,0-.94.33,1.18,1.18,0,0,0-.34.9h-2.38a3,3,0,0,1,.48-1.63,3.14,3.14,0,0,1,1.34-1.17,4.37,4.37,0,0,1,2-.43,3.56,3.56,0,0,1,2.61.94,3.5,3.5,0,0,1,1,2.64v4.39A5.33,5.33,0,0,0,235.6,30v.16Zm-2-1.88a1.84,1.84,0,0,0,1-.27,1.65,1.65,0,0,0,.65-.71V25.6H232c-1.19,0-1.83.46-1.9,1.4v.16a1.14,1.14,0,0,0,.31.83A1.12,1.12,0,0,0,231.24,28.32Z"/><path d="M237.06,17.46a1.41,1.41,0,0,1,.36-1,1.24,1.24,0,0,1,1-.39,1.25,1.25,0,0,1,1,.39,1.41,1.41,0,0,1,.36,1,1.44,1.44,0,0,1-.36,1,1.4,1.4,0,0,1-1.94,0A1.44,1.44,0,0,1,237.06,17.46Zm2.52,12.74H237.2V20.08h2.38Z"/><path d="M244.05,30.2h-2.39V15.83h2.39Z"/><path d="M250.42,17.39a1.14,1.14,0,0,1,.23-.71.8.8,0,0,1,.67-.29.81.81,0,0,1,.67.29,1.08,1.08,0,0,1,.23.71,1.06,1.06,0,0,1-.23.71.84.84,0,0,1-.67.28.82.82,0,0,1-.67-.28A1.12,1.12,0,0,1,250.42,17.39Zm1.65,12.81h-1.53V20.08h1.53Z"/><path d="M255.93,20.08l0,1.12a3.13,3.13,0,0,1,2.64-1.31,2.5,2.5,0,0,1,2.54,1.63,3.54,3.54,0,0,1,1.16-1.18,3.06,3.06,0,0,1,1.68-.45q2.92,0,3,3.53V30.2h-1.53V23.52A2.55,2.55,0,0,0,265,21.9a1.78,1.78,0,0,0-1.47-.54,1.85,1.85,0,0,0-1.4.58,2.45,2.45,0,0,0-.65,1.54V30.2H260V23.57c0-1.47-.63-2.21-1.9-2.21A2,2,0,0,0,256,22.81V30.2h-1.52V20.08Z"/><path d="M270.69,20.08l0,1.12a3.13,3.13,0,0,1,2.64-1.31,2.5,2.5,0,0,1,2.54,1.63,3.54,3.54,0,0,1,1.16-1.18,3.06,3.06,0,0,1,1.68-.45q2.92,0,3,3.53V30.2H280.2V23.52a2.55,2.55,0,0,0-.43-1.62,1.78,1.78,0,0,0-1.47-.54,1.85,1.85,0,0,0-1.4.58,2.45,2.45,0,0,0-.65,1.54V30.2h-1.53V23.57c0-1.47-.63-2.21-1.9-2.21a2,2,0,0,0-2.05,1.45V30.2h-1.52V20.08Z"/><path d="M289.51,29.2a3,3,0,0,1-2.6,1.19,2.63,2.63,0,0,1-2.17-.94,4.42,4.42,0,0,1-.75-2.79V20.08h1.52v6.54c0,1.53.55,2.3,1.64,2.3a2.26,2.26,0,0,0,2.32-1.48V20.08H291V30.2h-1.45Z"/><path d="M294.74,20.08l.05,1.27a3.13,3.13,0,0,1,2.67-1.46q2.82,0,2.84,3.62V30.2h-1.52V23.5a2.57,2.57,0,0,0-.44-1.62,1.64,1.64,0,0,0-1.34-.52,2,2,0,0,0-1.3.45,2.83,2.83,0,0,0-.87,1.18V30.2H293.3V20.08Z"/><path d="M302.6,17.39a1.14,1.14,0,0,1,.23-.71.92.92,0,0,1,1.34,0,1.08,1.08,0,0,1,.23.71,1.06,1.06,0,0,1-.23.71.94.94,0,0,1-1.34,0A1.12,1.12,0,0,1,302.6,17.39Zm1.65,12.81h-1.52V20.08h1.52Z"/><path d="M308.75,17.63v2.45h1.66v1.34h-1.66V27.7a1.51,1.51,0,0,0,.22.91.86.86,0,0,0,.75.31,3.1,3.1,0,0,0,.73-.12v1.4a4.08,4.08,0,0,1-1.17.19,1.8,1.8,0,0,1-1.54-.71,3.32,3.32,0,0,1-.51-2V21.42h-1.62V20.08h1.62V17.63Z"/><path d="M315.09,27.66l2.08-7.58h1.62l-3.57,11.68c-.56,1.68-1.44,2.53-2.64,2.53l-.29,0-.57-.12V32.73l.41,0a1.89,1.89,0,0,0,1.21-.35,2.71,2.71,0,0,0,.71-1.3l.34-1-3.18-10h1.66Z"/></svg>