<svg id="Layer_1" data-name="Layer 1" xmlns="http://www.w3.org/2000/svg" viewBox="0 0 316.39 41.24"><defs><style>.cls-1{fill:#0b2f4d;fill-rule:evenodd;}</style></defs><title>Inbox</title><path class="cls-1" d="M153,3.43H3.44V44.67H153ZM61.3,5.9V42.21h89.24V5.9Zm28.06,18a12.2,12.2,0,0,1,1-5.3,14,14,0,0,1,2.83-4.18,14,14,0,0,1,10-3.82,14.07,14.07,0,0,1,5.66,1,13.68,13.68,0,0,1,4.43,2.83,12,12,0,0,1,2.83,4.18,12.25,12.25,0,0,1,1.11,5.3A12.15,12.15,0,0,1,116.07,29a12,12,0,0,1-2.83,4.18,11.92,11.92,0,0,1-4.43,2.83,14.07,14.07,0,0,1-5.66,1,13.81,13.81,0,0,1-5.54-1,11.84,11.84,0,0,1-4.43-2.83A14,14,0,0,1,90.35,29,12,12,0,0,1,89.36,23.87ZM20.43,11.19V36.42H13.9V11.19ZM25.6,36.42V11.19h6.52L44.18,26.58V11.19h6.53V36.42H44.18L32.12,21V36.42Zm42-25.23H77.3a7.63,7.63,0,0,1,5.29,1.72,6,6,0,0,1,1.72,4.8,6.52,6.52,0,0,1-.61,3.2A6.86,6.86,0,0,1,81.61,23a5.63,5.63,0,0,1,2.33.73,4.39,4.39,0,0,1,1.6,1.36,6.55,6.55,0,0,1,1,1.84,11.37,11.37,0,0,1,.25,2.1,9,9,0,0,1-.62,3.2,7.57,7.57,0,0,1-1.72,2.21,7.26,7.26,0,0,1-2.71,1.48,16.46,16.46,0,0,1-3.69.49H67.57ZM127.15,23,119.4,11.19h8l3.44,6.52L135,11.19h8.12L134.78,23l9.36,13.41h-7.88l-5-8.24-5.91,8.24h-7.87ZM74.1,31.25h1.47A6.12,6.12,0,0,0,79,30.64a2.11,2.11,0,0,0,1.11-2A2.32,2.32,0,0,0,79,26.58,7.41,7.41,0,0,0,75.57,26H74.1Zm22-7.38a6.55,6.55,0,0,0,.62,2.71,6.75,6.75,0,0,0,3.69,3.69,8,8,0,0,0,5.54,0,7,7,0,0,0,2.21-1.48,7.11,7.11,0,0,0,1.6-2.21,6.65,6.65,0,0,0,.5-2.71,6.83,6.83,0,0,0-.5-2.83,7.61,7.61,0,0,0-3.81-3.7,8,8,0,0,0-5.54,0A6.73,6.73,0,0,0,96.75,21,6.74,6.74,0,0,0,96.13,23.87Zm-22-2.71h1.23c2,0,3.08-.86,3.08-2.46s-1.11-2.46-3.08-2.46H74.1Z" transform="translate(-3.44 -3.43)"/><path d="M164.19,28.47a4.33,4.33,0,0,1-.17-1.12,3,3,0,0,1-1.18.94,3.63,3.63,0,0,1-1.53.33,2.67,2.67,0,0,1-1.86-.65,2.09,2.09,0,0,1-.71-1.62,2.12,2.12,0,0,1,1-1.84,4.61,4.61,0,0,1,2.7-.68H164v-.91a1.76,1.76,0,0,0-.52-1.35,2.24,2.24,0,0,0-1.54-.49,2.43,2.43,0,0,0-1.53.47,1.42,1.42,0,0,0-.6,1.14h-.89a2,2,0,0,1,.89-1.65,3.42,3.42,0,0,1,2.17-.69,3.15,3.15,0,0,1,2.11.66,2.41,2.41,0,0,1,.79,1.87v3.78a4.48,4.48,0,0,0,.25,1.73v.09Zm-2.77-.64a3,3,0,0,0,1.58-.42,2.55,2.55,0,0,0,1-1.15V24.51h-1.57a4,4,0,0,0-2.07.48,1.45,1.45,0,0,0-.75,1.29,1.43,1.43,0,0,0,.5,1.11A1.86,1.86,0,0,0,161.42,27.83Z" transform="translate(-3.44 -3.43)"/><path d="M177.34,24.56a4.81,4.81,0,0,1-.82,3,2.65,2.65,0,0,1-2.22,1.1,3,3,0,0,1-2.51-1.16v4.08h-.88V20.48h.82l.05,1.13a2.82,2.82,0,0,1,2.5-1.27,2.68,2.68,0,0,1,2.25,1.08,4.94,4.94,0,0,1,.81,3Zm-.88-.16a4.08,4.08,0,0,0-.63-2.41,2,2,0,0,0-1.75-.89,2.42,2.42,0,0,0-1.39.39,2.53,2.53,0,0,0-.9,1.14v3.83a2.35,2.35,0,0,0,.91,1.05,2.62,2.62,0,0,0,1.39.36,2,2,0,0,0,1.74-.89A4.43,4.43,0,0,0,176.46,24.4Z" transform="translate(-3.44 -3.43)"/><path d="M184.34,28.47a3.93,3.93,0,0,1-.17-1.12,3.1,3.1,0,0,1-1.18.94,3.66,3.66,0,0,1-1.53.33A2.65,2.65,0,0,1,179.6,28a2.06,2.06,0,0,1-.71-1.62,2.12,2.12,0,0,1,1-1.84,4.57,4.57,0,0,1,2.7-.68h1.6v-.91a1.73,1.73,0,0,0-.53-1.35,2.2,2.2,0,0,0-1.53-.49,2.43,2.43,0,0,0-1.53.47,1.44,1.44,0,0,0-.61,1.14h-.88A2.06,2.06,0,0,1,180,21a3.44,3.44,0,0,1,2.18-.69,3.15,3.15,0,0,1,2.11.66,2.41,2.41,0,0,1,.79,1.87v3.78a4.72,4.72,0,0,0,.24,1.73v.09Zm-2.78-.64a3,3,0,0,0,1.59-.42,2.55,2.55,0,0,0,1-1.15V24.51h-1.58a3.94,3.94,0,0,0-2.06.48,1.45,1.45,0,0,0-.75,1.29,1.43,1.43,0,0,0,.5,1.11A1.84,1.84,0,0,0,181.56,27.83Z" transform="translate(-3.44 -3.43)"/><path d="M191.08,21.24a2.74,2.74,0,0,0-.59-.06,2.15,2.15,0,0,0-1.4.47,2.48,2.48,0,0,0-.82,1.34v5.48h-.88v-8h.87v1.27a2.35,2.35,0,0,1,2.25-1.41,1.59,1.59,0,0,1,.59.09Z" transform="translate(-3.44 -3.43)"/><path d="M194.22,18.44v2h1.65v.73h-1.65v5.32a1.64,1.64,0,0,0,.24,1,.93.93,0,0,0,.8.33,5.66,5.66,0,0,0,.72-.08l0,.72a2.9,2.9,0,0,1-.94.13,1.57,1.57,0,0,1-1.32-.53,2.45,2.45,0,0,1-.42-1.55V21.21h-1.46v-.73h1.46v-2Z" transform="translate(-3.44 -3.43)"/><path d="M200.89,24.36a4.7,4.7,0,0,1,.45-2.08,3.44,3.44,0,0,1,1.26-1.43,3.41,3.41,0,0,1,1.85-.51A3.29,3.29,0,0,1,207,21.45a4.33,4.33,0,0,1,1,3v.18a4.75,4.75,0,0,1-.45,2.09,3.27,3.27,0,0,1-1.25,1.42,3.44,3.44,0,0,1-1.86.51,3.33,3.33,0,0,1-2.58-1.12,4.32,4.32,0,0,1-1-3Zm.89.24a3.58,3.58,0,0,0,.74,2.35,2.51,2.51,0,0,0,3.88,0,3.7,3.7,0,0,0,.74-2.42v-.17a4,4,0,0,0-.34-1.68,2.64,2.64,0,0,0-1-1.17,2.41,2.41,0,0,0-1.4-.42,2.36,2.36,0,0,0-1.93.93,3.76,3.76,0,0,0-.74,2.42Z" transform="translate(-3.44 -3.43)"/><path d="M210.48,28.47V21.21h-1.32v-.73h1.32v-1a2.63,2.63,0,0,1,.62-1.88,2.29,2.29,0,0,1,1.74-.66,3.56,3.56,0,0,1,.94.12l-.07.73a4,4,0,0,0-.8-.08,1.45,1.45,0,0,0-1.14.45,1.87,1.87,0,0,0-.41,1.29v1h1.91v.73h-1.91v7.26Z" transform="translate(-3.44 -3.43)"/><path d="M221.81,28.62A3.71,3.71,0,0,1,219,27.54,3.91,3.91,0,0,1,218,24.68v-.22a4.7,4.7,0,0,1,.47-2.13,3.41,3.41,0,0,1,3.15-2,3.11,3.11,0,0,1,2.52,1,4.39,4.39,0,0,1,.89,2.94V25h-5.22a2.49,2.49,0,0,0,.66,1.57,2,2,0,0,0,1.46.57,2.45,2.45,0,0,0,2-1l1,.92a3.14,3.14,0,0,1-1.28,1.11A4,4,0,0,1,221.81,28.62Zm-.22-6.84a1.51,1.51,0,0,0-1.19.51,2.79,2.79,0,0,0-.58,1.44h3.42V23.6a2.16,2.16,0,0,0-.48-1.36A1.49,1.49,0,0,0,221.59,21.78Z" transform="translate(-3.44 -3.43)"/><path d="M228.09,20.48l0,.84a2.85,2.85,0,0,1,2.3-1,2.19,2.19,0,0,1,2.19,1.22,2.82,2.82,0,0,1,2.45-1.22,2.49,2.49,0,0,1,2,.73,3.19,3.19,0,0,1,.66,2.15v5.25h-1.79v-5.2a1.55,1.55,0,0,0-.34-1.11,1.42,1.42,0,0,0-1.09-.36,1.47,1.47,0,0,0-1,.33,1.8,1.8,0,0,0-.55.86v5.48h-1.79V23.21a1.28,1.28,0,0,0-1.44-1.41,1.59,1.59,0,0,0-1.53.88v5.79H226.4v-8Z" transform="translate(-3.44 -3.43)"/><path d="M244.32,28.47a2.43,2.43,0,0,1-.2-.75,3,3,0,0,1-4.06.21,2.19,2.19,0,0,1-.76-1.7,2.26,2.26,0,0,1,.95-2,4.61,4.61,0,0,1,2.71-.68h1.1v-.52a1.42,1.42,0,0,0-.35-1,1.39,1.39,0,0,0-1.05-.37,1.56,1.56,0,0,0-1,.31.94.94,0,0,0-.39.78h-1.79a2,2,0,0,1,.43-1.23,3,3,0,0,1,1.19-.9,4.08,4.08,0,0,1,1.67-.32A3.33,3.33,0,0,1,245,21a2.49,2.49,0,0,1,.86,2v3.6a4.08,4.08,0,0,0,.3,1.72v.13Zm-2-1.29a2,2,0,0,0,1-.26,1.66,1.66,0,0,0,.71-.7v-1.5h-1a2.68,2.68,0,0,0-1.5.35,1.13,1.13,0,0,0-.5,1,1.07,1.07,0,0,0,.34.82A1.31,1.31,0,0,0,242.35,27.18Z" transform="translate(-3.44 -3.43)"/><path d="M247.73,18.41a1,1,0,0,1,.26-.69,1.19,1.19,0,0,1,1.51,0,1,1,0,0,1,.26.69.92.92,0,0,1-.26.67,1.19,1.19,0,0,1-1.51,0A.92.92,0,0,1,247.73,18.41Zm1.91,10.06h-1.8v-8h1.8Z" transform="translate(-3.44 -3.43)"/><path d="M253.5,28.47h-1.8V17.13h1.8Z" transform="translate(-3.44 -3.43)"/><path d="M259.36,18a.41.41,0,1,1,.12.29A.4.4,0,0,1,259.36,18ZM260,28.47h-.4v-8h.4Z" transform="translate(-3.44 -3.43)"/><path d="M268.3,28.47h-.4V23.11a2.62,2.62,0,0,0-.53-1.79,2.1,2.1,0,0,0-1.65-.59,2.55,2.55,0,0,0-2.15,1.16,3.92,3.92,0,0,0-.66,1.54v5h-.4v-8h.4v1.89a3.34,3.34,0,0,1,1.16-1.5,3.07,3.07,0,0,1,3.31-.09,2.15,2.15,0,0,1,.84,1.45,2.93,2.93,0,0,1,1.15-1.38,3.25,3.25,0,0,1,1.79-.51,2.39,2.39,0,0,1,1.92.73,3.31,3.31,0,0,1,.64,2.19v5.21h-.4V23.29a3,3,0,0,0-.53-1.94,2,2,0,0,0-1.66-.62,2.81,2.81,0,0,0-2.3,1.16,2.5,2.5,0,0,0-.53,1.27Z" transform="translate(-3.44 -3.43)"/><path d="M281.85,28.47h-.4V23.11a2.62,2.62,0,0,0-.53-1.79,2.1,2.1,0,0,0-1.65-.59,2.54,2.54,0,0,0-2.15,1.16,3.92,3.92,0,0,0-.66,1.54v5h-.4v-8h.4v1.89a3.34,3.34,0,0,1,1.16-1.5,3.07,3.07,0,0,1,3.31-.09,2.15,2.15,0,0,1,.84,1.45,2.87,2.87,0,0,1,1.15-1.38,3.25,3.25,0,0,1,1.79-.51,2.39,2.39,0,0,1,1.92.73,3.31,3.31,0,0,1,.64,2.19v5.21h-.4V23.29a3,3,0,0,0-.53-1.94,2,2,0,0,0-1.66-.62,2.81,2.81,0,0,0-2.3,1.16,2.5,2.5,0,0,0-.53,1.27Z" transform="translate(-3.44 -3.43)"/><path d="M295,28.47V27.18a2.63,2.63,0,0,1-1,1.05,3.38,3.38,0,0,1-1.71.39,2.42,2.42,0,0,1-2-.77,3.36,3.36,0,0,1-.67-2.22V20.48h.4v5.16a2.93,2.93,0,0,0,.57,1.92,2,2,0,0,0,1.64.66,3,3,0,0,0,1.86-.54A2.45,2.45,0,0,0,295,26.1V20.48h.4v8Z" transform="translate(-3.44 -3.43)"/><path d="M298.36,22.34a3.23,3.23,0,0,1,1.15-1.46,2.85,2.85,0,0,1,1.68-.54,2.39,2.39,0,0,1,1.91.72,3.3,3.3,0,0,1,.63,2.2v5.21h-.4V23.25a2.93,2.93,0,0,0-.52-1.9,2,2,0,0,0-1.64-.62,2.48,2.48,0,0,0-1.79.74,3.78,3.78,0,0,0-1,1.89v5.11H298v-8h.4Z" transform="translate(-3.44 -3.43)"/><path d="M306.12,18a.41.41,0,1,1,.12.29A.4.4,0,0,1,306.12,18Zm.61,10.48h-.4v-8h.4Z" transform="translate(-3.44 -3.43)"/><path d="M310.24,18.33v2.15h1.82v.4h-1.82v5.68a2.2,2.2,0,0,0,.28,1.25,1,1,0,0,0,.92.41,5,5,0,0,0,.79-.07l.07.38a2.66,2.66,0,0,1-.83.09,1.46,1.46,0,0,1-1.25-.49,2.54,2.54,0,0,1-.39-1.52V20.88h-1.47v-.4h1.47V18.33Z" transform="translate(-3.44 -3.43)"/><path d="M316.57,27.85l.05-.15,2.76-7.22h.45l-3.58,9.38-.17.44a2,2,0,0,1-1.91,1.39,1.39,1.39,0,0,1-.59-.08v-.38a2.12,2.12,0,0,0,.54.06,1.55,1.55,0,0,0,1-.36,2.92,2.92,0,0,0,.71-1.19l.49-1.32-3.18-7.94h.43Z" transform="translate(-3.44 -3.43)"/></svg>