<svg id="Layer_1" data-name="Layer 1" xmlns="http://www.w3.org/2000/svg" viewBox="0 0 319.76 46.41"><defs><style>.cls-1{fill:#3c74ba;}.cls-2{fill:#22446c;}.cls-3{fill:#30607c;}.cls-4{fill:#53a2d4;}</style></defs><title>moveimmunty</title><g id="Layer_1-2" data-name="Layer 1-2"><path class="cls-1" d="M29.63,21.51A52.47,52.47,0,0,0,1.25,35.27V11.45A10.46,10.46,0,0,1,11.71,1H22.9A33.33,33.33,0,0,0,29.63,21.51Z" transform="translate(-1.25 -1)"/><path class="cls-2" d="M44.75,11.45v9.37a67.14,67.14,0,0,0-15.12.69A33.33,33.33,0,0,1,22.9,1H34.29A10.46,10.46,0,0,1,44.75,11.45Z" transform="translate(-1.25 -1)"/><path class="cls-3" d="M44.75,20.82V34.21a44.91,44.91,0,0,1-15.12-12.7A67.14,67.14,0,0,1,44.75,20.82Z" transform="translate(-1.25 -1)"/><path class="cls-4" d="M44.75,34.21v2.34A10.46,10.46,0,0,1,34.29,47H11.71A10.46,10.46,0,0,1,1.25,36.55V35.27A52.47,52.47,0,0,1,29.63,21.51,44.91,44.91,0,0,0,44.75,34.21Z" transform="translate(-1.25 -1)"/></g><path d="M62,17.18l.18,2.4a7.56,7.56,0,0,1,6.19-2.8q4.15,0,5.71,3.28a7.39,7.39,0,0,1,6.47-3.28,6.42,6.42,0,0,1,5.21,2c1.14,1.36,1.71,3.4,1.71,6.14V38.71H81.72V25A4.09,4.09,0,0,0,81,22.3a3.17,3.17,0,0,0-2.52-.85,3.61,3.61,0,0,0-3.59,2.47l0,14.79H69.16V25a4.07,4.07,0,0,0-.73-2.71,3.2,3.2,0,0,0-2.51-.84,3.72,3.72,0,0,0-3.54,2V38.71H56.62V17.18Z" transform="translate(-1.25 -1)"/><path d="M91,27.74A12.81,12.81,0,0,1,92.25,22a9.08,9.08,0,0,1,3.55-3.88,10.43,10.43,0,0,1,5.39-1.37,9.84,9.84,0,0,1,7.11,2.66,10.71,10.71,0,0,1,3.08,7.25l0,1.47a11.25,11.25,0,0,1-2.77,8,10.71,10.71,0,0,1-14.86,0A11.44,11.44,0,0,1,91,28Zm5.75.41a8.08,8.08,0,0,0,1.15,4.7,4.16,4.16,0,0,0,6.57,0,8.84,8.84,0,0,0,1.18-5.14,8,8,0,0,0-1.18-4.66,3.81,3.81,0,0,0-3.3-1.65,3.75,3.75,0,0,0-3.27,1.64A9,9,0,0,0,96.77,28.15Z" transform="translate(-1.25 -1)"/><path d="M122.72,31.69l4-14.51h6l-7.26,21.53H120l-7.27-21.53h6Z" transform="translate(-1.25 -1)"/><path d="M144.91,39.11a10.58,10.58,0,0,1-7.71-2.91,10.31,10.31,0,0,1-3-7.74V27.9a13,13,0,0,1,1.25-5.8A9.25,9.25,0,0,1,139,18.16a10,10,0,0,1,5.25-1.38,9,9,0,0,1,6.95,2.78c1.7,1.86,2.54,4.5,2.54,7.91v2.34H140.06a5.3,5.3,0,0,0,1.68,3.39,5.08,5.08,0,0,0,3.55,1.27,6.21,6.21,0,0,0,5.2-2.41l2.82,3.17a8.59,8.59,0,0,1-3.5,2.85A11.38,11.38,0,0,1,144.91,39.11Zm-.65-17.69a3.61,3.61,0,0,0-2.78,1.15,6,6,0,0,0-1.36,3.32h8v-.46a4.27,4.27,0,0,0-1-3A3.68,3.68,0,0,0,144.26,21.42Z" transform="translate(-1.25 -1)"/><path d="M158,10.45a1.1,1.1,0,0,1,.32-.79,1,1,0,0,1,.78-.33,1.13,1.13,0,0,1,1.11,1.12,1,1,0,0,1-.33.77,1.06,1.06,0,0,1-.78.32,1,1,0,0,1-.78-.32A1.06,1.06,0,0,1,158,10.45Zm1.63,28.26h-1.07V17.18h1.07Z" transform="translate(-1.25 -1)"/><path d="M182.05,38.71H181V24.25a7.18,7.18,0,0,0-1.42-4.82,5.72,5.72,0,0,0-4.47-1.58A6.84,6.84,0,0,0,169.3,21a10.46,10.46,0,0,0-1.77,4.14v13.6h-1.1V17.18h1.1v5.09a9.08,9.08,0,0,1,3.12-4.06,8.28,8.28,0,0,1,8.93-.24,5.9,5.9,0,0,1,2.25,3.9,7.92,7.92,0,0,1,3.11-3.71,8.73,8.73,0,0,1,4.82-1.38,6.45,6.45,0,0,1,5.18,2q1.71,2,1.72,5.91V38.71h-1.07v-14a8.12,8.12,0,0,0-1.42-5.24,5.44,5.44,0,0,0-4.47-1.66A7.49,7.49,0,0,0,183.49,21a6.59,6.59,0,0,0-1.44,3.42Z" transform="translate(-1.25 -1)"/><path d="M218.6,38.71h-1.08V24.25a7.18,7.18,0,0,0-1.42-4.82,5.72,5.72,0,0,0-4.47-1.58A6.86,6.86,0,0,0,205.84,21a10.46,10.46,0,0,0-1.77,4.14v13.6H203V17.18h1.1v5.09a9.15,9.15,0,0,1,3.12-4.06,8.28,8.28,0,0,1,8.93-.24,5.91,5.91,0,0,1,2.26,3.9,7.85,7.85,0,0,1,3.1-3.71,8.75,8.75,0,0,1,4.82-1.38,6.45,6.45,0,0,1,5.18,2c1.14,1.31,1.71,3.28,1.73,5.91V38.71h-1.08v-14c0-2.36-.47-4.1-1.42-5.24a5.44,5.44,0,0,0-4.47-1.66A7.5,7.5,0,0,0,220,21a6.57,6.57,0,0,0-1.43,3.42Z" transform="translate(-1.25 -1)"/><path d="M254.16,38.71V35.23a7,7,0,0,1-2.78,2.83,9.24,9.24,0,0,1-4.64,1,6.56,6.56,0,0,1-5.28-2.06,9.12,9.12,0,0,1-1.81-6V17.18h1.08V31.09a7.9,7.9,0,0,0,1.55,5.18A5.49,5.49,0,0,0,246.7,38a8.12,8.12,0,0,0,5-1.45,6.58,6.58,0,0,0,2.44-4.26V17.18h1.1V38.71Z" transform="translate(-1.25 -1)"/><path d="M263.12,22.19a9,9,0,0,1,3.1-4,7.67,7.67,0,0,1,4.54-1.45,6.41,6.41,0,0,1,5.15,2c1.12,1.3,1.69,3.28,1.7,5.92V38.71h-1.07V24.63a8,8,0,0,0-1.42-5.12,5.48,5.48,0,0,0-4.42-1.66,6.7,6.7,0,0,0-4.82,2,10.07,10.07,0,0,0-2.76,5.1V38.71H262V17.18h1.08Z" transform="translate(-1.25 -1)"/><path d="M284.06,10.45a1.06,1.06,0,0,1,.32-.79,1,1,0,0,1,.77-.33,1.13,1.13,0,0,1,1.12,1.12,1,1,0,0,1-.33.77,1.06,1.06,0,0,1-.79.32,1.09,1.09,0,0,1-1.09-1.09Zm1.63,28.26h-1.07V17.18h1.07Z" transform="translate(-1.25 -1)"/><path d="M295.16,11.36v5.82h4.9v1.07h-4.9v15.3a6.08,6.08,0,0,0,.75,3.39,2.8,2.8,0,0,0,2.5,1.09,17,17,0,0,0,2.13-.17l.18,1a7.34,7.34,0,0,1-2.25.24,4,4,0,0,1-3.36-1.31,6.73,6.73,0,0,1-1-4.11V18.25h-4V17.18h4V11.36Z" transform="translate(-1.25 -1)"/><path d="M312.24,37l.14-.4,7.45-19.46H321l-9.63,25.27-.48,1.2q-1.56,3.76-5.14,3.76a4.05,4.05,0,0,1-1.59-.22l0-1a5.83,5.83,0,0,0,1.45.17,4.06,4.06,0,0,0,2.81-1,7.76,7.76,0,0,0,1.93-3.2l1.31-3.56-8.57-21.41h1.17Z" transform="translate(-1.25 -1)"/></svg>