<svg id="Layer_1" data-name="Layer 1" xmlns="http://www.w3.org/2000/svg" viewBox="0 0 322 48"><defs><style>.cls-1{fill:#4f8f00;}.cls-2{fill:#2e5401;}.cls-3{fill:#406d00;}.cls-4{fill:#6dba00;}</style></defs><title>Transferimmunity</title><g id="Layer_1-2" data-name="Layer 1-2"><path class="cls-1" d="M30,21.65A52.38,52.38,0,0,0,1.61,35.4V11.59A10.45,10.45,0,0,1,12.07,1.14H23.26A33.36,33.36,0,0,0,30,21.65Z"/><path class="cls-2" d="M45.1,11.59V21a67,67,0,0,0-15.11.7A33.36,33.36,0,0,1,23.26,1.14H34.65A10.45,10.45,0,0,1,45.1,11.59Z"/><path class="cls-3" d="M45.1,21v13.4A45,45,0,0,1,30,21.65,67,67,0,0,1,45.1,21Z"/><path class="cls-4" d="M45.1,34.35v2.33A10.45,10.45,0,0,1,34.65,47.14H12.07A10.46,10.46,0,0,1,1.61,36.68V35.4A52.38,52.38,0,0,1,30,21.65,45,45,0,0,0,45.1,34.35Z"/></g><path d="M60.55,10.28V15h3.13v3.73H60.55v9.49a2.32,2.32,0,0,0,.39,1.51,1.9,1.9,0,0,0,1.49.46A7.75,7.75,0,0,0,63.87,30v3.85a9.88,9.88,0,0,1-3,.45c-3.44,0-5.19-1.79-5.25-5.39V18.69H53V15h2.68V10.28Z"/><path d="M76.71,19.72A13.57,13.57,0,0,0,75,19.58c-1.86,0-3.07.65-3.65,2V34H66.41V15H71l.14,2.27a4.51,4.51,0,0,1,4.08-2.62,4.8,4.8,0,0,1,1.53.23Z"/><path d="M89.17,34a5.83,5.83,0,0,1-.49-1.7,5.8,5.8,0,0,1-4.62,2,6.38,6.38,0,0,1-4.46-1.61,5.3,5.3,0,0,1-1.77-4.08A5.46,5.46,0,0,1,80,24a10.35,10.35,0,0,1,6.25-1.64h2.25V21.27a3.24,3.24,0,0,0-.65-2.11,2.51,2.51,0,0,0-2.06-.79,2.84,2.84,0,0,0-1.94.62,2.11,2.11,0,0,0-.7,1.68h-4.9a5.28,5.28,0,0,1,1-3.06A6.57,6.57,0,0,1,82,15.41a9.86,9.86,0,0,1,4-.8,7.81,7.81,0,0,1,5.38,1.77,6.26,6.26,0,0,1,2,5v8.25a9.25,9.25,0,0,0,.73,4.09V34Zm-4-3.53a4.11,4.11,0,0,0,2-.5,3.34,3.34,0,0,0,1.36-1.35V25.33H86.65Q83,25.33,82.74,28l0,.3a2.06,2.06,0,0,0,.64,1.56A2.46,2.46,0,0,0,85.13,30.45Z"/><path d="M101.66,15l.15,2.2a6.3,6.3,0,0,1,5.27-2.55,5.22,5.22,0,0,1,4.33,1.77,8.57,8.57,0,0,1,1.46,5.31V34H108V21.82a3.4,3.4,0,0,0-.67-2.35,3,3,0,0,0-2.26-.73,3.35,3.35,0,0,0-3.1,1.83V34H97.05V15Z"/><path d="M126.5,28.73a1.65,1.65,0,0,0-.89-1.47,9.66,9.66,0,0,0-2.85-1q-6.54-1.43-6.54-5.77a5.29,5.29,0,0,1,2-4.22,7.94,7.94,0,0,1,5.3-1.7,8.62,8.62,0,0,1,5.58,1.7,5.47,5.47,0,0,1,2.09,4.43h-4.9a2.53,2.53,0,0,0-.67-1.8,3.48,3.48,0,0,0-4-.13,1.84,1.84,0,0,0-.68,1.48,1.59,1.59,0,0,0,.77,1.36,7.77,7.77,0,0,0,2.6.9,19.77,19.77,0,0,1,3.08.85c2.59,1,3.88,2.69,3.88,5.11a5,5,0,0,1-2.15,4.22,9.05,9.05,0,0,1-5.56,1.6,9.41,9.41,0,0,1-4.09-.85,7,7,0,0,1-2.8-2.34,5.56,5.56,0,0,1-1-3.21h4.65a2.66,2.66,0,0,0,1,2.08,3.74,3.74,0,0,0,2.41.72,3.44,3.44,0,0,0,2.12-.55A1.75,1.75,0,0,0,126.5,28.73Z"/><path d="M135.75,34V18.69H133V15h2.73V13.34a6.68,6.68,0,0,1,1.77-5,6.69,6.69,0,0,1,4.95-1.77A11.26,11.26,0,0,1,145,7l-.05,3.94a5.81,5.81,0,0,0-1.49-.16c-1.84,0-2.76.9-2.76,2.69V15h3.64v3.73h-3.64V34Z"/><path d="M154.87,34.33a8.79,8.79,0,0,1-6.56-2.56,9.31,9.31,0,0,1-2.54-6.84v-.49a11.92,11.92,0,0,1,1.07-5.13,8,8,0,0,1,3-3.48,8.27,8.27,0,0,1,4.46-1.22,7.48,7.48,0,0,1,5.92,2.46q2.16,2.46,2.16,7v2.07H150.74a4.76,4.76,0,0,0,1.43,3,4.22,4.22,0,0,0,3,1.13,5.2,5.2,0,0,0,4.42-2.13l2.41,2.8a7.5,7.5,0,0,1-3,2.52A9.57,9.57,0,0,1,154.87,34.33Zm-.56-15.63a3,3,0,0,0-2.36,1,5.36,5.36,0,0,0-1.16,2.93h6.81v-.41a3.93,3.93,0,0,0-.88-2.62A3.1,3.1,0,0,0,154.31,18.7Z"/><path d="M175.48,19.72a13.31,13.31,0,0,0-1.76-.14c-1.85,0-3.07.65-3.64,2V34h-4.9V15h4.63l.13,2.27A4.52,4.52,0,0,1,174,14.61a4.7,4.7,0,0,1,1.52.23Z"/><path d="M178.61,9a1,1,0,0,1,.27-.7.92.92,0,0,1,.67-.29.93.93,0,0,1,.67.29,1,1,0,0,1,.27.7.94.94,0,0,1-.94,1,.91.91,0,0,1-.67-.28A.93.93,0,0,1,178.61,9ZM180,34h-.91V15H180Z"/><path d="M199.12,34h-.91V21.21A6.54,6.54,0,0,0,197,17a4.74,4.74,0,0,0-3.8-1.39,5.77,5.77,0,0,0-4.93,2.76A9.34,9.34,0,0,0,186.76,22V34h-.93V15h.93v4.5a8,8,0,0,1,2.66-3.59,6.84,6.84,0,0,1,7.6-.21,5.33,5.33,0,0,1,1.92,3.45,6.87,6.87,0,0,1,2.64-3.28,7.26,7.26,0,0,1,4.1-1.22,5.41,5.41,0,0,1,4.41,1.74,8.1,8.1,0,0,1,1.47,5.22V34h-.92V21.65A7.32,7.32,0,0,0,209.43,17a4.49,4.49,0,0,0-3.8-1.46,6.29,6.29,0,0,0-5.29,2.76,6,6,0,0,0-1.22,3Z"/><path d="M230.22,34h-.91V21.21A6.54,6.54,0,0,0,228.09,17a4.73,4.73,0,0,0-3.8-1.39,5.79,5.79,0,0,0-4.93,2.76,9.33,9.33,0,0,0-1.5,3.65V34h-.94V15h.94v4.5a8,8,0,0,1,2.66-3.59,6.82,6.82,0,0,1,7.59-.21A5.24,5.24,0,0,1,230,19.11a7,7,0,0,1,2.65-3.28,7.23,7.23,0,0,1,4.09-1.22,5.43,5.43,0,0,1,4.42,1.74,8.1,8.1,0,0,1,1.46,5.22V34h-.91V21.65A7.39,7.39,0,0,0,240.53,17a4.51,4.51,0,0,0-3.81-1.46,6.28,6.28,0,0,0-5.28,2.76,5.9,5.9,0,0,0-1.22,3Z"/><path d="M260.49,34V30.91a6.16,6.16,0,0,1-2.38,2.5,7.56,7.56,0,0,1-3.94.92,5.47,5.47,0,0,1-4.5-1.82,8.26,8.26,0,0,1-1.53-5.3V15h.91V27.25a7.28,7.28,0,0,0,1.32,4.58,4.6,4.6,0,0,0,3.76,1.55,6.7,6.7,0,0,0,4.27-1.28,5.86,5.86,0,0,0,2.09-3.76V15h.93V34Z"/><path d="M268.11,19.39a8,8,0,0,1,2.64-3.5,6.39,6.39,0,0,1,3.86-1.28A5.37,5.37,0,0,1,279,16.34a8.16,8.16,0,0,1,1.45,5.23V34h-.92V21.55a7.21,7.21,0,0,0-1.2-4.53,4.57,4.57,0,0,0-3.76-1.46,5.59,5.59,0,0,0-4.11,1.75,8.93,8.93,0,0,0-2.34,4.5V34h-.92V15h.92Z"/><path d="M285.92,9a1,1,0,0,1,.27-.7.92.92,0,0,1,1.34,0,1,1,0,0,1,.27.7.93.93,0,0,1-.27.68.94.94,0,0,1-1.34,0A.93.93,0,0,1,285.92,9Zm1.39,25h-.91V15h.91Z"/><path d="M295.38,9.83V15h4.16v.95h-4.16V29.42a5.63,5.63,0,0,0,.63,3,2.35,2.35,0,0,0,2.13,1,13.39,13.39,0,0,0,1.81-.15l.15.89a6,6,0,0,1-1.91.21,3.35,3.35,0,0,1-2.87-1.15,6.2,6.2,0,0,1-.88-3.63V15.91h-3.38V15h3.38V9.83Z"/><path d="M309.91,32.51l.11-.36L316.36,15h1l-8.2,22.33-.41,1.05c-.88,2.22-2.34,3.32-4.37,3.32a3.25,3.25,0,0,1-1.35-.19l0-.91a4.61,4.61,0,0,0,1.24.16,3.41,3.41,0,0,0,2.39-.87A7.05,7.05,0,0,0,308.3,37l1.12-3.14L302.12,15h1Z"/></svg>