<svg id="Layer_1" data-name="Layer 1" xmlns="http://www.w3.org/2000/svg" viewBox="0 0 322 48"><defs><style>.cls-1{fill:#3c74ba;}.cls-2{fill:#22446c;}.cls-3{fill:#30607c;}.cls-4{fill:#53a2d4;}</style></defs><title>moveimmunty</title><g id="Layer_1-2" data-name="Layer 1-2"><path class="cls-1" d="M29.63,21.7A52.38,52.38,0,0,0,1.25,35.45V11.64A10.46,10.46,0,0,1,11.71,1.19H22.9A33.36,33.36,0,0,0,29.63,21.7Z"/><path class="cls-2" d="M44.75,11.64V21a67.14,67.14,0,0,0-15.12.7A33.36,33.36,0,0,1,22.9,1.19H34.29A10.46,10.46,0,0,1,44.75,11.64Z"/><path class="cls-3" d="M44.75,21V34.4A44.91,44.91,0,0,1,29.63,21.7,67.14,67.14,0,0,1,44.75,21Z"/><path class="cls-4" d="M44.75,34.4v2.33A10.46,10.46,0,0,1,34.29,47.19H11.71A10.46,10.46,0,0,1,1.25,36.73V35.45A52.38,52.38,0,0,1,29.63,21.7,44.91,44.91,0,0,0,44.75,34.4Z"/></g><path d="M62,13l.18,2.41a7.57,7.57,0,0,1,6.19-2.81q4.15,0,5.71,3.29a7.4,7.4,0,0,1,6.47-3.29,6.42,6.42,0,0,1,5.21,2q1.71,2,1.71,6.14V34.53H81.72V20.79A4.06,4.06,0,0,0,81,18.12a3.14,3.14,0,0,0-2.52-.85,3.6,3.6,0,0,0-3.59,2.47l0,14.79H69.16V20.81a4.07,4.07,0,0,0-.73-2.71,3.24,3.24,0,0,0-2.51-.83,3.72,3.72,0,0,0-3.54,2V34.53H56.62V13Z"/><path d="M91,23.56a12.78,12.78,0,0,1,1.23-5.71A9,9,0,0,1,95.8,14a10.34,10.34,0,0,1,5.39-1.38,9.8,9.8,0,0,1,7.11,2.67,10.68,10.68,0,0,1,3.08,7.24l0,1.48a11.29,11.29,0,0,1-2.77,8,10.74,10.74,0,0,1-14.86,0A11.46,11.46,0,0,1,91,23.82Zm5.75.41a8,8,0,0,0,1.15,4.69,4.14,4.14,0,0,0,6.57,0,8.82,8.82,0,0,0,1.18-5.13,8,8,0,0,0-1.18-4.67,4.1,4.1,0,0,0-6.57,0A9,9,0,0,0,96.77,24Z"/><path d="M122.72,27.5l4-14.51h6l-7.26,21.54H120L112.71,13h6Z"/><path d="M144.91,34.92A10.61,10.61,0,0,1,137.2,32a10.34,10.34,0,0,1-3-7.74v-.56a12.94,12.94,0,0,1,1.25-5.8A9.28,9.28,0,0,1,139,14a10,10,0,0,1,5.25-1.38,8.92,8.92,0,0,1,6.95,2.79c1.7,1.86,2.54,4.49,2.54,7.9v2.35H140.06A5.28,5.28,0,0,0,141.74,29a5.09,5.09,0,0,0,3.55,1.28,6.23,6.23,0,0,0,5.2-2.41L153.31,31a8.62,8.62,0,0,1-3.5,2.86A11.52,11.52,0,0,1,144.91,34.92Zm-.65-17.69a3.61,3.61,0,0,0-2.78,1.16,6,6,0,0,0-1.36,3.32h8v-.46a4.27,4.27,0,0,0-1-3A3.69,3.69,0,0,0,144.26,17.23Z"/><path d="M158,6.26a1.1,1.1,0,0,1,.32-.78,1,1,0,0,1,.78-.33,1.13,1.13,0,0,1,1.11,1.11,1,1,0,0,1-.33.78,1.1,1.1,0,0,1-.78.32,1.09,1.09,0,0,1-1.1-1.1Zm1.63,28.27h-1.07V13h1.07Z"/><path d="M182.05,34.53H181V20.07a7.17,7.17,0,0,0-1.42-4.82,5.68,5.68,0,0,0-4.47-1.58,6.84,6.84,0,0,0-5.79,3.12,10.35,10.35,0,0,0-1.77,4.13V34.53h-1.1V13h1.1v5.1A9.06,9.06,0,0,1,170.65,14a8.25,8.25,0,0,1,8.93-.23,5.85,5.85,0,0,1,2.25,3.9A8,8,0,0,1,184.94,14a8.73,8.73,0,0,1,4.82-1.38,6.48,6.48,0,0,1,5.18,2q1.71,2,1.72,5.91V34.53h-1.07v-14a8.1,8.1,0,0,0-1.42-5.24,5.38,5.38,0,0,0-4.47-1.66,7.49,7.49,0,0,0-6.21,3.12,6.59,6.59,0,0,0-1.44,3.42Z"/><path d="M218.6,34.53h-1.08V20.07a7.17,7.17,0,0,0-1.42-4.82,5.68,5.68,0,0,0-4.47-1.58,6.86,6.86,0,0,0-5.79,3.12,10.35,10.35,0,0,0-1.77,4.13V34.53H203V13h1.1v5.1A9.13,9.13,0,0,1,207.19,14a8.25,8.25,0,0,1,8.93-.23,5.86,5.86,0,0,1,2.26,3.9,7.87,7.87,0,0,1,3.1-3.72,8.75,8.75,0,0,1,4.82-1.38,6.48,6.48,0,0,1,5.18,2c1.14,1.32,1.71,3.29,1.73,5.91V34.53h-1.08v-14q0-3.54-1.42-5.24a5.38,5.38,0,0,0-4.47-1.66A7.5,7.5,0,0,0,220,16.79a6.57,6.57,0,0,0-1.43,3.42Z"/><path d="M254.16,34.53V31a7,7,0,0,1-2.78,2.84,9.24,9.24,0,0,1-4.64,1,6.53,6.53,0,0,1-5.28-2.06,9.12,9.12,0,0,1-1.81-6V13h1.08V26.9a8,8,0,0,0,1.55,5.19,5.52,5.52,0,0,0,4.42,1.76,8.19,8.19,0,0,0,5-1.45,6.58,6.58,0,0,0,2.44-4.26V13h1.1V34.53Z"/><path d="M263.12,18a9,9,0,0,1,3.1-4,7.74,7.74,0,0,1,4.54-1.45,6.44,6.44,0,0,1,5.15,2q1.68,2,1.7,5.92V34.53h-1.07V20.45a7.94,7.94,0,0,0-1.42-5.12,5.44,5.44,0,0,0-4.42-1.66,6.73,6.73,0,0,0-4.82,2,10.06,10.06,0,0,0-2.76,5.11V34.53H262V13h1.08Z"/><path d="M284.06,6.26a1.06,1.06,0,0,1,.32-.78,1,1,0,0,1,.77-.33,1.13,1.13,0,0,1,1.12,1.11,1,1,0,0,1-.33.78,1.1,1.1,0,0,1-.79.32,1.06,1.06,0,0,1-.77-.32A1,1,0,0,1,284.06,6.26Zm1.63,28.27h-1.07V13h1.07Z"/><path d="M295.16,7.18V13h4.9v1.07h-4.9V29.37a6.06,6.06,0,0,0,.75,3.38,2.81,2.81,0,0,0,2.5,1.1,15.47,15.47,0,0,0,2.13-.18l.18,1a7.34,7.34,0,0,1-2.25.24,4,4,0,0,1-3.36-1.3,6.75,6.75,0,0,1-1-4.12V14.06h-4V13h4V7.18Z"/><path d="M312.24,32.85l.14-.39L319.83,13H321l-9.63,25.28-.48,1.19q-1.56,3.76-5.14,3.76a3.87,3.87,0,0,1-1.59-.22l0-1a5.38,5.38,0,0,0,1.45.18,4.11,4.11,0,0,0,2.81-1A7.87,7.87,0,0,0,310.35,38l1.31-3.55L303.09,13h1.17Z"/></svg>