<svg id="Layer_1" data-name="Layer 1" xmlns="http://www.w3.org/2000/svg" viewBox="0 0 313.84 45.81"><defs><style>.cls-1{fill:#1f619e;fill-rule:evenodd;}</style></defs><title>Overmail</title><path class="cls-1" d="M61,1H2.88V46.83H61ZM4.25,25.29V45.46H59.63V25.29Zm41.37,3.14v14H42v-14Zm6.56,0V39.31h4.38v3.07h-8v-14ZM35.7,39.92H30.5l-.82,2.46H25.79l5.33-14h4l5.33,14h-3.9ZM7.32,42.38l2.4-14h3.62l2.74,7.39,2.8-7.39H22.5l2.33,14H21.2L20,34.31l-3.28,8.07H15.32l-3.14-8.07L11,42.38Zm27.42-5.19L33.1,32.54l-1.64,4.65ZM7.32,12.5a7,7,0,0,1,.55-2.66,6.51,6.51,0,0,1,3.69-3.56,7.52,7.52,0,0,1,2.81-.55,8.08,8.08,0,0,1,2.87.55A7.08,7.08,0,0,1,19.5,7.72a6.4,6.4,0,0,1,1.43,2.12,7,7,0,0,1,.55,2.66,6.81,6.81,0,0,1-.55,2.6,6.8,6.8,0,0,1-1.43,2.19,8.7,8.7,0,0,1-2.26,1.37,7.74,7.74,0,0,1-7.93-1.37A6.67,6.67,0,0,1,7.87,15.1,7,7,0,0,1,7.32,12.5ZM43.56,9h-4v2.12h3.76v2.8H39.6v2.19h4v2.8H36.32V6.14h7.24Zm13,9.91H52.38l-3.14-4.92v4.92H46V6.14h5.13a5.24,5.24,0,0,1,1.84.28,2.87,2.87,0,0,1,1.3.89,3.79,3.79,0,0,1,.82,1.23,5.09,5.09,0,0,1,.27,1.5,3.8,3.8,0,0,1-.75,2.39,3.76,3.76,0,0,1-2,1.17ZM25.24,6.14l3.08,7.73,3.07-7.73H35L29.62,18.86H27L21.61,6.14ZM10.81,12.5a3.22,3.22,0,0,0,.27,1.37A3.29,3.29,0,0,0,11.91,15a2.4,2.4,0,0,0,1.09.76,3.38,3.38,0,0,0,1.37.27,3.15,3.15,0,0,0,1.36-.27A2.76,2.76,0,0,0,16.9,15a3.4,3.4,0,0,0,.82-1.09A3.08,3.08,0,0,0,18,12.5a3.2,3.2,0,0,0-.27-1.43A3.56,3.56,0,0,0,16.9,10a3.61,3.61,0,0,0-1.17-.75A4.5,4.5,0,0,0,14.37,9,4.57,4.57,0,0,0,13,9.22a3.17,3.17,0,0,0-1.09.75,3.44,3.44,0,0,0-.83,1.1A3.2,3.2,0,0,0,10.81,12.5Zm38.43-.68h.61a2.37,2.37,0,0,0,1.51-.41,1.45,1.45,0,0,0,.55-1.16,1.4,1.4,0,0,0-.55-1.17,2.37,2.37,0,0,0-1.51-.41h-.61Z" transform="translate(-2.88 -1.02)"/><path d="M75.43,29.64a3.89,3.89,0,0,1-.25-1.09,3.92,3.92,0,0,1-2.94,1.29A3.63,3.63,0,0,1,69.73,29a2.81,2.81,0,0,1-1-2.19A2.91,2.91,0,0,1,70,24.27a5.75,5.75,0,0,1,3.45-.9h1.73v-.81a2,2,0,0,0-.56-1.48A2.24,2.24,0,0,0,73,20.53a2.57,2.57,0,0,0-1.59.48,1.4,1.4,0,0,0-.64,1.16H69a2.42,2.42,0,0,1,.55-1.5A3.76,3.76,0,0,1,71,19.53a5,5,0,0,1,2.07-.42,4.06,4.06,0,0,1,2.8.89,3.24,3.24,0,0,1,1.06,2.46v4.77a5.87,5.87,0,0,0,.36,2.26v.15ZM72.5,28.3a3.21,3.21,0,0,0,1.58-.43,2.7,2.7,0,0,0,1.08-1.12V24.62H73.77c-2.17,0-3.25.64-3.25,1.91a1.61,1.61,0,0,0,.55,1.3A2.16,2.16,0,0,0,72.5,28.3Z" transform="translate(-2.88 -1.02)"/><path d="M86.21,19.3l.05,1.15a3.8,3.8,0,0,1,3.07-1.34,2.94,2.94,0,0,1,3,1.66,3.89,3.89,0,0,1,3.3-1.66c2.27,0,3.43,1.2,3.46,3.6v6.93H97.27V22.82a2.36,2.36,0,0,0-.5-1.66,2.23,2.23,0,0,0-1.7-.55,2.31,2.31,0,0,0-1.64.59,2.39,2.39,0,0,0-.75,1.58v6.86H90.9V22.86a2,2,0,0,0-2.21-2.25,2.36,2.36,0,0,0-2.38,1.48v7.55H84.54V19.3Z" transform="translate(-2.88 -1.02)"/><path d="M106,29.84a4.5,4.5,0,0,1-3.43-1.39,5.12,5.12,0,0,1-1.32-3.69v-.33a6.27,6.27,0,0,1,.59-2.75,4.6,4.6,0,0,1,1.65-1.89,4.07,4.07,0,0,1,2.29-.68,3.85,3.85,0,0,1,3.13,1.33,5.71,5.71,0,0,1,1.12,3.8V25h-7a3.66,3.66,0,0,0,.9,2.47,2.79,2.79,0,0,0,2.17.94,3.14,3.14,0,0,0,1.59-.38,4.19,4.19,0,0,0,1.14-1l1.08.84A4.36,4.36,0,0,1,106,29.84Zm-.22-9.28a2.35,2.35,0,0,0-1.8.78,3.73,3.73,0,0,0-.9,2.18h5.18v-.13a3.34,3.34,0,0,0-.73-2.09A2.22,2.22,0,0,0,105.79,20.56Z" transform="translate(-2.88 -1.02)"/><path d="M113.75,19.3l0,1.15a3.8,3.8,0,0,1,3.07-1.34,2.94,2.94,0,0,1,2.95,1.66,3.89,3.89,0,0,1,3.3-1.66c2.27,0,3.43,1.2,3.46,3.6v6.93h-1.76V22.82a2.36,2.36,0,0,0-.51-1.66,2.23,2.23,0,0,0-1.7-.55,2.31,2.31,0,0,0-1.64.59,2.39,2.39,0,0,0-.75,1.58v6.86h-1.78V22.86a2,2,0,0,0-2.21-2.25,2.36,2.36,0,0,0-2.38,1.48v7.55h-1.77V19.3Z" transform="translate(-2.88 -1.02)"/><path d="M138,24.59a6.13,6.13,0,0,1-1.09,3.81A3.47,3.47,0,0,1,134,29.84a3.64,3.64,0,0,1-3-1.39l-.08,1.19h-1.63V15H131v5.48a3.59,3.59,0,0,1,3-1.33,3.51,3.51,0,0,1,3,1.42,6.38,6.38,0,0,1,1.07,3.9Zm-1.77-.2a4.85,4.85,0,0,0-.69-2.8,2.34,2.34,0,0,0-2-1A2.6,2.6,0,0,0,131,22.23v4.48a2.67,2.67,0,0,0,2.54,1.62,2.31,2.31,0,0,0,2-1A5.09,5.09,0,0,0,136.24,24.39Z" transform="translate(-2.88 -1.02)"/><path d="M144.53,29.84a4.49,4.49,0,0,1-3.42-1.39,5.12,5.12,0,0,1-1.32-3.69v-.33a6.27,6.27,0,0,1,.59-2.75A4.65,4.65,0,0,1,142,19.79a4.12,4.12,0,0,1,2.29-.68,3.86,3.86,0,0,1,3.14,1.33,5.71,5.71,0,0,1,1.12,3.8V25h-7a3.7,3.7,0,0,0,.89,2.47,2.81,2.81,0,0,0,2.18.94,3.17,3.17,0,0,0,1.59-.38,4.19,4.19,0,0,0,1.14-1l1.08.84A4.36,4.36,0,0,1,144.53,29.84Zm-.22-9.28a2.34,2.34,0,0,0-1.79.78,3.73,3.73,0,0,0-.9,2.18h5.18v-.13a3.34,3.34,0,0,0-.73-2.09A2.23,2.23,0,0,0,144.31,20.56Z" transform="translate(-2.88 -1.02)"/><path d="M155.62,20.89a4.79,4.79,0,0,0-.87-.07,2.32,2.32,0,0,0-2.36,1.48v7.34h-1.77V19.3h1.72l0,1.19a2.75,2.75,0,0,1,2.46-1.38,1.82,1.82,0,0,1,.79.13Z" transform="translate(-2.88 -1.02)"/><path d="M161.62,24.38a6.1,6.1,0,0,1,.6-2.74,4.45,4.45,0,0,1,1.66-1.87,4.58,4.58,0,0,1,2.44-.66,4.35,4.35,0,0,1,3.42,1.46,5.63,5.63,0,0,1,1.3,3.89v.13a6.12,6.12,0,0,1-.58,2.71,4.35,4.35,0,0,1-1.65,1.87,4.64,4.64,0,0,1-2.47.67,4.33,4.33,0,0,1-3.41-1.47,5.58,5.58,0,0,1-1.31-3.87Zm1.78.21a4.46,4.46,0,0,0,.8,2.76,2.57,2.57,0,0,0,2.14,1,2.53,2.53,0,0,0,2.14-1.06,4.81,4.81,0,0,0,.79-2.95,4.46,4.46,0,0,0-.8-2.76,2.57,2.57,0,0,0-2.15-1.06,2.54,2.54,0,0,0-2.11,1A4.79,4.79,0,0,0,163.4,24.59Z" transform="translate(-2.88 -1.02)"/><path d="M174.13,29.64v-9H172.5V19.3h1.63V18.24a3.56,3.56,0,0,1,.89-2.58,3.38,3.38,0,0,1,2.52-.9,4.57,4.57,0,0,1,1.21.16l-.1,1.42a5.7,5.7,0,0,0-1-.08,1.7,1.7,0,0,0-1.33.5,2.06,2.06,0,0,0-.47,1.44v1.1h2.21v1.37H175.9v9Z" transform="translate(-2.88 -1.02)"/><path d="M189.23,29.84a4.8,4.8,0,0,1-3.58-1.4,5,5,0,0,1-1.37-3.7v-.29a6.23,6.23,0,0,1,.6-2.77,4.46,4.46,0,0,1,1.67-1.89,4.39,4.39,0,0,1,2.41-.68,4.07,4.07,0,0,1,3.27,1.35,5.67,5.67,0,0,1,1.15,3.81v.94h-6.76a3.09,3.09,0,0,0,.86,2,2.56,2.56,0,0,0,1.88.75A3.16,3.16,0,0,0,192,26.69l1.25,1.19a4.22,4.22,0,0,1-1.66,1.44A5.08,5.08,0,0,1,189.23,29.84ZM189,21a1.94,1.94,0,0,0-1.54.67,3.52,3.52,0,0,0-.75,1.87h4.43v-.18a2.79,2.79,0,0,0-.63-1.76A1.92,1.92,0,0,0,189,21Z" transform="translate(-2.88 -1.02)"/><path d="M197.37,19.3l.07,1.08a3.7,3.7,0,0,1,3-1.27,2.87,2.87,0,0,1,2.84,1.58,3.68,3.68,0,0,1,3.17-1.58,3.22,3.22,0,0,1,2.55.94,4.18,4.18,0,0,1,.86,2.8v6.79h-2.33V22.91a2,2,0,0,0-.43-1.44,1.85,1.85,0,0,0-1.42-.46,1.92,1.92,0,0,0-1.3.43,2.21,2.21,0,0,0-.7,1.11v7.09h-2.32v-6.8A1.66,1.66,0,0,0,199.48,21a2,2,0,0,0-2,1.14v7.49h-2.32V19.3Z" transform="translate(-2.88 -1.02)"/><path d="M218.41,29.64a3.25,3.25,0,0,1-.27-1,3.9,3.9,0,0,1-5.26.27,2.86,2.86,0,0,1-1-2.2,2.93,2.93,0,0,1,1.23-2.54,6,6,0,0,1,3.52-.89h1.42v-.67a1.81,1.81,0,0,0-.45-1.29,1.77,1.77,0,0,0-1.36-.48,2.05,2.05,0,0,0-1.3.39,1.23,1.23,0,0,0-.51,1h-2.32a2.53,2.53,0,0,1,.56-1.59,3.78,3.78,0,0,1,1.53-1.16,5.42,5.42,0,0,1,2.17-.42,4.34,4.34,0,0,1,2.9.91,3.26,3.26,0,0,1,1.11,2.57v4.66a5.31,5.31,0,0,0,.39,2.23v.16ZM215.85,28a2.67,2.67,0,0,0,1.3-.33,2.32,2.32,0,0,0,.91-.9V24.79h-1.25a3.41,3.41,0,0,0-1.94.45,1.46,1.46,0,0,0-.65,1.27,1.37,1.37,0,0,0,.44,1.06A1.71,1.71,0,0,0,215.85,28Z" transform="translate(-2.88 -1.02)"/><path d="M222.83,16.61a1.22,1.22,0,0,1,.34-.89,1.28,1.28,0,0,1,1-.35,1.31,1.31,0,0,1,1,.35,1.29,1.29,0,0,1,0,1.77,1.3,1.3,0,0,1-1,.34,1.27,1.27,0,0,1-1-.34A1.21,1.21,0,0,1,222.83,16.61Zm2.46,13H223V19.3h2.32Z" transform="translate(-2.88 -1.02)"/><path d="M230.29,29.64H228V15h2.32Z" transform="translate(-2.88 -1.02)"/><path d="M237.82,16.31a.77.77,0,0,1,.21-.55.74.74,0,0,1,.57-.22.75.75,0,0,1,.58.22.74.74,0,0,1,.22.55.72.72,0,0,1-.22.54.75.75,0,0,1-.58.22.74.74,0,0,1-.57-.22A.75.75,0,0,1,237.82,16.31Zm1.35,13.33H238V19.3h1.15Z" transform="translate(-2.88 -1.02)"/><path d="M243.32,19.3l0,1.68a3.76,3.76,0,0,1,3.34-1.87,2.9,2.9,0,0,1,3.11,2,3.9,3.9,0,0,1,1.48-1.48,4.09,4.09,0,0,1,2.05-.52q3.33,0,3.4,3.63v6.9h-1.15V22.83a3.12,3.12,0,0,0-.6-2.06,2.42,2.42,0,0,0-1.92-.67,3,3,0,0,0-2.08.8,2.8,2.8,0,0,0-1,1.9v6.84h-1.15v-6.9a2.78,2.78,0,0,0-.62-2,2.49,2.49,0,0,0-1.9-.66,2.92,2.92,0,0,0-1.86.62,3.65,3.65,0,0,0-1.14,1.83v7.09h-1.15V19.3Z" transform="translate(-2.88 -1.02)"/><path d="M260.67,19.3l0,1.68a3.79,3.79,0,0,1,3.35-1.87,2.91,2.91,0,0,1,3.11,2,3.9,3.9,0,0,1,1.48-1.48,4.09,4.09,0,0,1,2.05-.52q3.33,0,3.39,3.63v6.9h-1.15V22.83a3.07,3.07,0,0,0-.59-2.06,2.45,2.45,0,0,0-1.92-.67,3.06,3.06,0,0,0-2.09.8,2.83,2.83,0,0,0-.94,1.9v6.84h-1.15v-6.9a2.78,2.78,0,0,0-.63-2,2.47,2.47,0,0,0-1.89-.66,2.9,2.9,0,0,0-1.86.62,3.59,3.59,0,0,0-1.15,1.83v7.09h-1.14V19.3Z" transform="translate(-2.88 -1.02)"/><path d="M283.64,28.33a3.7,3.7,0,0,1-3.29,1.51,3.2,3.2,0,0,1-2.52-1A4.24,4.24,0,0,1,277,26V19.3h1.14v6.59c0,2,.8,2.95,2.39,2.95a2.93,2.93,0,0,0,3.15-2.05V19.3h1.14V29.64h-1.11Z" transform="translate(-2.88 -1.02)"/><path d="M288.84,19.3l0,1.77a4,4,0,0,1,1.45-1.46,3.72,3.72,0,0,1,1.92-.5,3.12,3.12,0,0,1,2.48.93,4.28,4.28,0,0,1,.82,2.81v6.79h-1.14V22.85a3.1,3.1,0,0,0-.59-2.07A2.3,2.3,0,0,0,292,20.1a2.89,2.89,0,0,0-1.88.67,4,4,0,0,0-1.21,1.79v7.08h-1.13V19.3Z" transform="translate(-2.88 -1.02)"/><path d="M298.44,16.31a.77.77,0,0,1,.21-.55.74.74,0,0,1,.57-.22.76.76,0,0,1,.58.22.78.78,0,0,1,.22.55.75.75,0,0,1-.8.76.74.74,0,0,1-.57-.22A.75.75,0,0,1,298.44,16.31Zm1.35,13.33h-1.15V19.3h1.15Z" transform="translate(-2.88 -1.02)"/><path d="M304.67,16.65V19.3h2.14v.93h-2.14v6.91a2.21,2.21,0,0,0,.31,1.28,1.22,1.22,0,0,0,1,.42,7.65,7.65,0,0,0,.93-.09l.05.92a3.67,3.67,0,0,1-1.23.17,2,2,0,0,1-1.71-.69,3.17,3.17,0,0,1-.53-2V20.23h-1.91V19.3h1.91V16.65Z" transform="translate(-2.88 -1.02)"/><path d="M312.47,28l3-8.7h1.23L312.3,31.4l-.22.54a2.78,2.78,0,0,1-2.63,1.88,3.13,3.13,0,0,1-.88-.13v-.95l.59.06a2.1,2.1,0,0,0,1.36-.42A3.16,3.16,0,0,0,311.4,31l.5-1.4L308,19.3h1.25Z" transform="translate(-2.88 -1.02)"/></svg>