<svg id="Layer_1" data-name="Layer 1" xmlns="http://www.w3.org/2000/svg" viewBox="0 0 322 48"><defs><style>.cls-1{fill:#1f619e;fill-rule:evenodd;}</style></defs><title>Overmail</title><path class="cls-1" d="M61,1.11H2.88v46H61ZM4.25,25.48V45.73H59.63V25.48Zm41.37,3.16v14H42v-14Zm6.56,0V39.55h4.38v3.09h-8v-14ZM35.7,40.17H30.5l-.82,2.47H25.79l5.33-14h4l5.33,14h-3.9ZM7.32,42.64l2.4-14h3.62l2.74,7.41,2.8-7.41H22.5l2.33,14H21.2L20,34.54l-3.28,8.1H15.32l-3.14-8.1L11,42.64Zm27.42-5.21L33.1,32.76l-1.64,4.67ZM7.32,12.64A7.06,7.06,0,0,1,7.87,10,6.42,6.42,0,0,1,9.31,7.83a6.52,6.52,0,0,1,2.25-1.44,7.52,7.52,0,0,1,2.81-.55,8.08,8.08,0,0,1,2.87.55A7.08,7.08,0,0,1,19.5,7.83,6.55,6.55,0,0,1,20.93,10a7.06,7.06,0,0,1,.55,2.68,7.22,7.22,0,0,1-2,4.81,8.43,8.43,0,0,1-2.26,1.37,7.67,7.67,0,0,1-7.93-1.37,6.82,6.82,0,0,1-1.44-2.2A7.09,7.09,0,0,1,7.32,12.64ZM43.56,9.07h-4V11.2h3.76V14H39.6v2.2h4V19H36.32V6.25h7.24Zm13,10H52.38l-3.14-5v5H46V6.25h5.13a5.48,5.48,0,0,1,1.84.28,2.87,2.87,0,0,1,1.3.89,3.94,3.94,0,0,1,.82,1.24,5.16,5.16,0,0,1,.27,1.51,3.83,3.83,0,0,1-.75,2.4,3.76,3.76,0,0,1-2,1.17ZM25.24,6.25,28.32,14l3.07-7.76H35L29.62,19H27L21.61,6.25ZM10.81,12.64A3.22,3.22,0,0,0,11.08,14a3.33,3.33,0,0,0,.83,1.1,2.4,2.4,0,0,0,1.09.76,3.22,3.22,0,0,0,1.37.27,3,3,0,0,0,1.36-.27,2.76,2.76,0,0,0,1.17-.76,3.45,3.45,0,0,0,.82-1.1A3.08,3.08,0,0,0,18,12.64a3.22,3.22,0,0,0-.27-1.44,3.93,3.93,0,0,0-2-1.86,4.5,4.5,0,0,0-1.36-.27A4.9,4.9,0,0,0,13,9.34a3.2,3.2,0,0,0-1.09.76,3.33,3.33,0,0,0-.83,1.1A3.22,3.22,0,0,0,10.81,12.64ZM49.24,12h.61a2.31,2.31,0,0,0,1.51-.41,1.46,1.46,0,0,0,.55-1.17,1.39,1.39,0,0,0-.55-1.16,2.25,2.25,0,0,0-1.51-.41h-.61Z"/><path d="M75.43,29.46a4,4,0,0,1-.25-1.09,3.91,3.91,0,0,1-2.94,1.28,3.68,3.68,0,0,1-2.51-.86,2.82,2.82,0,0,1-1-2.2A2.93,2.93,0,0,1,70,24.08a5.83,5.83,0,0,1,3.45-.89h1.73v-.81a2,2,0,0,0-.56-1.48A2.2,2.2,0,0,0,73,20.35a2.57,2.57,0,0,0-1.59.48A1.38,1.38,0,0,0,70.74,22H69a2.41,2.41,0,0,1,.55-1.49A3.78,3.78,0,0,1,71,19.34a5,5,0,0,1,2.07-.42,4.06,4.06,0,0,1,2.8.9,3.21,3.21,0,0,1,1.06,2.46V27a5.89,5.89,0,0,0,.36,2.27v.15ZM72.5,28.11a3.11,3.11,0,0,0,1.58-.43,2.64,2.64,0,0,0,1.08-1.12V24.44H73.77c-2.17,0-3.25.63-3.25,1.9a1.6,1.6,0,0,0,.55,1.3A2.11,2.11,0,0,0,72.5,28.11Z"/><path d="M86.21,19.11l.05,1.15a3.83,3.83,0,0,1,3.07-1.34,3,3,0,0,1,3,1.67,3.86,3.86,0,0,1,3.3-1.67c2.27,0,3.43,1.2,3.46,3.61v6.93H97.27V22.63a2.37,2.37,0,0,0-.5-1.66,2.27,2.27,0,0,0-1.7-.55,2.36,2.36,0,0,0-1.64.59,2.39,2.39,0,0,0-.75,1.58v6.87H90.9V22.68a2,2,0,0,0-2.21-2.26,2.36,2.36,0,0,0-2.38,1.49v7.55H84.54V19.11Z"/><path d="M106,29.65a4.53,4.53,0,0,1-3.43-1.38,5.12,5.12,0,0,1-1.32-3.7v-.32a6.24,6.24,0,0,1,.59-2.75,4.48,4.48,0,0,1,1.65-1.89,4.08,4.08,0,0,1,2.29-.69,3.88,3.88,0,0,1,3.13,1.33A5.75,5.75,0,0,1,110,24.06v.73h-7a3.68,3.68,0,0,0,.9,2.48,2.82,2.82,0,0,0,2.17.94,3.14,3.14,0,0,0,1.59-.38,4.23,4.23,0,0,0,1.14-1l1.08.84A4.34,4.34,0,0,1,106,29.65Zm-.22-9.27a2.35,2.35,0,0,0-1.8.78,3.7,3.7,0,0,0-.9,2.18h5.18v-.13a3.32,3.32,0,0,0-.73-2.09A2.19,2.19,0,0,0,105.79,20.38Z"/><path d="M113.75,19.11l0,1.15a3.83,3.83,0,0,1,3.07-1.34,3,3,0,0,1,2.95,1.67,3.86,3.86,0,0,1,3.3-1.67c2.27,0,3.43,1.2,3.46,3.61v6.93h-1.76V22.63a2.37,2.37,0,0,0-.51-1.66,2.27,2.27,0,0,0-1.7-.55A2.36,2.36,0,0,0,121,21a2.39,2.39,0,0,0-.75,1.58v6.87h-1.78V22.68a2,2,0,0,0-2.21-2.26,2.36,2.36,0,0,0-2.38,1.49v7.55h-1.77V19.11Z"/><path d="M138,24.4a6.13,6.13,0,0,1-1.09,3.81A3.47,3.47,0,0,1,134,29.65a3.63,3.63,0,0,1-3-1.38l-.08,1.19h-1.63V14.77H131v5.48a3.62,3.62,0,0,1,3-1.33,3.52,3.52,0,0,1,3,1.43,6.38,6.38,0,0,1,1.07,3.9Zm-1.77-.2a4.83,4.83,0,0,0-.69-2.79,2.32,2.32,0,0,0-2-1A2.61,2.61,0,0,0,131,22.05v4.48a2.67,2.67,0,0,0,2.54,1.62,2.33,2.33,0,0,0,2-1A5.13,5.13,0,0,0,136.24,24.2Z"/><path d="M144.53,29.65a4.52,4.52,0,0,1-3.42-1.38,5.12,5.12,0,0,1-1.32-3.7v-.32a6.24,6.24,0,0,1,.59-2.75A4.53,4.53,0,0,1,142,19.61a4.13,4.13,0,0,1,2.29-.69,3.89,3.89,0,0,1,3.14,1.33,5.75,5.75,0,0,1,1.12,3.81v.73h-7a3.73,3.73,0,0,0,.89,2.48,2.84,2.84,0,0,0,2.18.94,3.17,3.17,0,0,0,1.59-.38,4.23,4.23,0,0,0,1.14-1l1.08.84A4.34,4.34,0,0,1,144.53,29.65Zm-.22-9.27a2.34,2.34,0,0,0-1.79.78,3.7,3.7,0,0,0-.9,2.18h5.18v-.13a3.32,3.32,0,0,0-.73-2.09A2.2,2.2,0,0,0,144.31,20.38Z"/><path d="M155.62,20.7a5.9,5.9,0,0,0-.87-.07,2.33,2.33,0,0,0-2.36,1.49v7.34h-1.77V19.11h1.72l0,1.2a2.74,2.74,0,0,1,2.46-1.39,1.8,1.8,0,0,1,.79.14Z"/><path d="M161.62,24.19a6.08,6.08,0,0,1,.6-2.73,4.48,4.48,0,0,1,1.66-1.88,4.58,4.58,0,0,1,2.44-.66,4.35,4.35,0,0,1,3.42,1.47,5.61,5.61,0,0,1,1.3,3.89v.12a6.09,6.09,0,0,1-.58,2.71A4.3,4.3,0,0,1,168.81,29a4.55,4.55,0,0,1-2.47.67,4.36,4.36,0,0,1-3.41-1.46,5.62,5.62,0,0,1-1.31-3.87Zm1.78.21a4.47,4.47,0,0,0,.8,2.77,2.57,2.57,0,0,0,2.14,1,2.53,2.53,0,0,0,2.14-1.06,4.82,4.82,0,0,0,.79-3,4.5,4.5,0,0,0-.8-2.76,2.59,2.59,0,0,0-2.15-1.05,2.52,2.52,0,0,0-2.11,1A4.76,4.76,0,0,0,163.4,24.4Z"/><path d="M174.13,29.46v-9H172.5V19.11h1.63V18.05a3.54,3.54,0,0,1,.89-2.57,3.34,3.34,0,0,1,2.52-.91,5,5,0,0,1,1.21.16l-.1,1.43a4.79,4.79,0,0,0-1-.09,1.7,1.7,0,0,0-1.33.51A2,2,0,0,0,175.9,18v1.09h2.21v1.37H175.9v9Z"/><path d="M189.23,29.65a4.79,4.79,0,0,1-3.58-1.39,5,5,0,0,1-1.37-3.7v-.29a6.2,6.2,0,0,1,.6-2.77A4.44,4.44,0,0,1,189,18.92a4.07,4.07,0,0,1,3.27,1.35,5.7,5.7,0,0,1,1.15,3.82V25h-6.76a3.11,3.11,0,0,0,.86,2,2.56,2.56,0,0,0,1.88.75A3.16,3.16,0,0,0,192,26.51l1.25,1.19a4.22,4.22,0,0,1-1.66,1.44A5.21,5.21,0,0,1,189.23,29.65ZM189,20.79a1.94,1.94,0,0,0-1.54.67,3.45,3.45,0,0,0-.75,1.86h4.43v-.17a2.8,2.8,0,0,0-.63-1.77A2,2,0,0,0,189,20.79Z"/><path d="M197.37,19.11l.07,1.08a3.73,3.73,0,0,1,3-1.27,2.86,2.86,0,0,1,2.84,1.59,3.66,3.66,0,0,1,3.17-1.59,3.23,3.23,0,0,1,2.55.95,4.13,4.13,0,0,1,.86,2.79v6.8h-2.33V22.73a2,2,0,0,0-.43-1.44,1.85,1.85,0,0,0-1.42-.46,2,2,0,0,0-1.3.42,2.29,2.29,0,0,0-.7,1.12v7.09h-2.32V22.65a1.66,1.66,0,0,0-1.87-1.82,2.06,2.06,0,0,0-2,1.13v7.5h-2.32V19.11Z"/><path d="M218.41,29.46a3.44,3.44,0,0,1-.27-1,3.9,3.9,0,0,1-5.26.27,2.83,2.83,0,0,1-1-2.2A2.94,2.94,0,0,1,213.12,24a6,6,0,0,1,3.52-.88h1.42v-.68a1.84,1.84,0,0,0-.45-1.29,1.77,1.77,0,0,0-1.36-.48,2,2,0,0,0-1.3.4,1.22,1.22,0,0,0-.51,1h-2.32a2.53,2.53,0,0,1,.56-1.59,3.71,3.71,0,0,1,1.53-1.17,5.42,5.42,0,0,1,2.17-.42,4.35,4.35,0,0,1,2.9.92,3.25,3.25,0,0,1,1.11,2.56v4.67a5.34,5.34,0,0,0,.39,2.23v.16Zm-2.56-1.67a2.58,2.58,0,0,0,1.3-.34,2.19,2.19,0,0,0,.91-.9V24.6h-1.25a3.41,3.41,0,0,0-1.94.45,1.47,1.47,0,0,0-.65,1.27,1.37,1.37,0,0,0,.44,1.07A1.76,1.76,0,0,0,215.85,27.79Z"/><path d="M222.83,16.43a1.21,1.21,0,0,1,.34-.89,1.25,1.25,0,0,1,1-.36,1.28,1.28,0,0,1,1,.36,1.21,1.21,0,0,1,.35.89,1.18,1.18,0,0,1-.35.87,1.31,1.31,0,0,1-1,.35,1.28,1.28,0,0,1-1-.35A1.18,1.18,0,0,1,222.83,16.43Zm2.46,13H223V19.11h2.32Z"/><path d="M230.29,29.46H228V14.77h2.32Z"/><path d="M237.82,16.13a.77.77,0,0,1,.21-.55.74.74,0,0,1,.57-.22.75.75,0,0,1,.58.22.79.79,0,0,1,0,1.09.86.86,0,0,1-1.15,0A.76.76,0,0,1,237.82,16.13Zm1.35,13.33H238V19.11h1.15Z"/><path d="M243.32,19.11l0,1.69a3.78,3.78,0,0,1,1.43-1.41,4,4,0,0,1,1.91-.47,2.9,2.9,0,0,1,3.11,2,3.92,3.92,0,0,1,1.48-1.49,4.19,4.19,0,0,1,2.05-.52q3.33,0,3.4,3.64v6.9h-1.15V22.64a3.09,3.09,0,0,0-.6-2.05,2.42,2.42,0,0,0-1.92-.67,3,3,0,0,0-2.08.8,2.79,2.79,0,0,0-1,1.89v6.85h-1.15v-6.9a2.82,2.82,0,0,0-.62-2,2.53,2.53,0,0,0-1.9-.65,2.91,2.91,0,0,0-1.86.61,3.73,3.73,0,0,0-1.14,1.84v7.09h-1.15V19.11Z"/><path d="M260.67,19.11l0,1.69a3.81,3.81,0,0,1,1.44-1.41,3.94,3.94,0,0,1,1.91-.47,2.91,2.91,0,0,1,3.11,2,3.92,3.92,0,0,1,1.48-1.49,4.19,4.19,0,0,1,2.05-.52q3.33,0,3.39,3.64v6.9h-1.15V22.64a3,3,0,0,0-.59-2.05,2.45,2.45,0,0,0-1.92-.67,3.06,3.06,0,0,0-2.09.8,2.82,2.82,0,0,0-.94,1.89v6.85h-1.15v-6.9a2.83,2.83,0,0,0-.63-2,2.5,2.5,0,0,0-1.89-.65,2.89,2.89,0,0,0-1.86.61,3.67,3.67,0,0,0-1.15,1.84v7.09h-1.14V19.11Z"/><path d="M283.64,28.15a3.69,3.69,0,0,1-3.29,1.5,3.2,3.2,0,0,1-2.52-1,4.21,4.21,0,0,1-.88-2.84V19.11h1.14V25.7c0,2,.8,3,2.39,3a2.94,2.94,0,0,0,3.15-2.06V19.11h1.14V29.46h-1.11Z"/><path d="M288.84,19.11l0,1.77a4.14,4.14,0,0,1,1.45-1.46,3.82,3.82,0,0,1,1.92-.5,3.12,3.12,0,0,1,2.48.94,4.24,4.24,0,0,1,.82,2.81v6.79h-1.14v-6.8a3.09,3.09,0,0,0-.59-2.06,2.27,2.27,0,0,0-1.85-.68,2.93,2.93,0,0,0-1.88.66,4,4,0,0,0-1.21,1.8v7.08h-1.13V19.11Z"/><path d="M298.44,16.13a.77.77,0,0,1,.21-.55.74.74,0,0,1,.57-.22.76.76,0,0,1,.58.22.79.79,0,0,1,0,1.09.8.8,0,0,1-.58.22.78.78,0,0,1-.57-.22A.76.76,0,0,1,298.44,16.13Zm1.35,13.33h-1.15V19.11h1.15Z"/><path d="M304.67,16.46v2.65h2.14v.94h-2.14V27a2.23,2.23,0,0,0,.31,1.29,1.22,1.22,0,0,0,1,.42,6.39,6.39,0,0,0,.93-.1l.05.93a3.7,3.7,0,0,1-1.23.16,2.06,2.06,0,0,1-1.71-.68,3.22,3.22,0,0,1-.53-2v-6.9h-1.91v-.94h1.91V16.46Z"/><path d="M312.47,27.82l3-8.71h1.23L312.3,31.22l-.22.54a2.79,2.79,0,0,1-2.63,1.88,3.54,3.54,0,0,1-.88-.13v-.95l.59.06a2.1,2.1,0,0,0,1.36-.42,3.2,3.2,0,0,0,.89-1.43l.5-1.4L308,19.11h1.25Z"/></svg>