<svg id="Layer_1" data-name="Layer 1" xmlns="http://www.w3.org/2000/svg" viewBox="0 0 322 48"><defs><style>.cls-1{fill:#4f8f00;}.cls-2{fill:#2e5401;}.cls-3{fill:#406d00;}.cls-4{fill:#6dba00;}</style></defs><title>Transferimmunity</title><g id="Layer_1-2" data-name="Layer 1-2"><path class="cls-1" d="M25.93,20.72A44.08,44.08,0,0,0,2.09,32.21V12.32a8.76,8.76,0,0,1,8.78-8.74h9.4A27.78,27.78,0,0,0,25.93,20.72Z"/><path class="cls-2" d="M38.63,12.32v7.82a56.84,56.84,0,0,0-12.7.58A27.78,27.78,0,0,1,20.27,3.58h9.57A8.77,8.77,0,0,1,38.63,12.32Z"/><path class="cls-3" d="M38.63,20.14V31.33a37.58,37.58,0,0,1-12.7-10.61A56.84,56.84,0,0,1,38.63,20.14Z"/><path class="cls-4" d="M38.63,31.33v2A8.77,8.77,0,0,1,29.84,42h-19a8.76,8.76,0,0,1-8.78-8.74V32.21A44.08,44.08,0,0,1,25.93,20.72,37.58,37.58,0,0,0,38.63,31.33Z"/></g><path d="M50.59,10v4.62H54v3.17H50.59V28.42A2.35,2.35,0,0,0,51,30a2,2,0,0,0,1.53.48,6.41,6.41,0,0,0,1.5-.18v3.31a10.5,10.5,0,0,1-2.81.41c-3.29,0-4.93-1.82-4.93-5.44V17.79H43.19V14.62h3.13V10Z"/><path d="M67.19,18.53a11,11,0,0,0-1.74-.14,3.92,3.92,0,0,0-4,2.25v13H57.21v-19h4.08l.11,2.13a4.82,4.82,0,0,1,4.29-2.48,3.93,3.93,0,0,1,1.52.25Z"/><path d="M80.74,33.66a6.41,6.41,0,0,1-.49-1.77,7.19,7.19,0,0,1-9.68.49,5.24,5.24,0,0,1-1.82-4.05A5.41,5.41,0,0,1,71,23.66,11,11,0,0,1,77.48,22H80.1V20.78a3.33,3.33,0,0,0-.82-2.36,3.25,3.25,0,0,0-2.52-.89,3.74,3.74,0,0,0-2.39.73,2.24,2.24,0,0,0-.93,1.85H69.16a4.71,4.71,0,0,1,1-2.93A6.9,6.9,0,0,1,73,15.05a9.86,9.86,0,0,1,4-.78A8,8,0,0,1,82.34,16a6,6,0,0,1,2,4.73v8.58a9.81,9.81,0,0,0,.72,4.11v.29ZM76,30.58A4.85,4.85,0,0,0,78.42,30a4,4,0,0,0,1.68-1.66V24.72H77.8a6.3,6.3,0,0,0-3.57.83A2.67,2.67,0,0,0,73,27.89a2.47,2.47,0,0,0,.82,2A3.13,3.13,0,0,0,76,30.58Z"/><path d="M92.83,14.62l.12,2.2a6.86,6.86,0,0,1,5.54-2.55q6,0,6.06,6.81V33.66h-4.28V21.33a3.92,3.92,0,0,0-.78-2.68,3.27,3.27,0,0,0-2.56-.88,4.13,4.13,0,0,0-3.86,2.34V33.66H88.8v-19Z"/><path d="M119.57,28.49a1.93,1.93,0,0,0-.94-1.74,10,10,0,0,0-3.12-1.06,15.77,15.77,0,0,1-3.64-1.16Q108.66,23,108.66,20a5.07,5.07,0,0,1,2.08-4.11A8.17,8.17,0,0,1,116,14.27,8.54,8.54,0,0,1,121.54,16a5.37,5.37,0,0,1,2.1,4.38h-4.28a2.64,2.64,0,0,0-.91-2.05,3.54,3.54,0,0,0-2.43-.82,3.78,3.78,0,0,0-2.3.66,2,2,0,0,0-.88,1.74,1.73,1.73,0,0,0,.82,1.53A11.52,11.52,0,0,0,117,22.5,16,16,0,0,1,121,23.82a5.66,5.66,0,0,1,2.13,1.84,4.69,4.69,0,0,1,.69,2.6,5,5,0,0,1-2.13,4.16,9,9,0,0,1-5.58,1.6,9.89,9.89,0,0,1-4.17-.85,6.87,6.87,0,0,1-2.85-2.32,5.52,5.52,0,0,1-1-3.19h4.15A3,3,0,0,0,113.33,30a4.46,4.46,0,0,0,2.8.81,4.28,4.28,0,0,0,2.56-.64A2,2,0,0,0,119.57,28.49Z"/><path d="M129,33.66V17.79H126.1V14.62H129V12.88A6.51,6.51,0,0,1,130.77,8a6.72,6.72,0,0,1,4.92-1.72,10,10,0,0,1,2.4.31L138,9.93a7.9,7.9,0,0,0-1.64-.15q-3.06,0-3.06,3.15v1.69h3.87v3.17h-3.87V33.66Z"/><path d="M148.24,34a8.87,8.87,0,0,1-6.59-2.56,9.3,9.3,0,0,1-2.52-6.82v-.53a11.37,11.37,0,0,1,1.1-5.1,8.38,8.38,0,0,1,3.08-3.49,8.22,8.22,0,0,1,4.44-1.25,7.5,7.5,0,0,1,6,2.48q2.12,2.49,2.12,7V25.5H143.44A5.74,5.74,0,0,0,145,29.23a4.75,4.75,0,0,0,3.48,1.37,5.78,5.78,0,0,0,4.78-2.37l2.31,2.2a7.67,7.67,0,0,1-3.05,2.64A9.59,9.59,0,0,1,148.24,34Zm-.51-16.32a3.58,3.58,0,0,0-2.84,1.24,6.38,6.38,0,0,0-1.38,3.43h8.14v-.32a5.19,5.19,0,0,0-1.14-3.25A3.58,3.58,0,0,0,147.73,17.7Z"/><path d="M169.16,18.53a11,11,0,0,0-1.74-.14,3.92,3.92,0,0,0-4,2.25v13h-4.27v-19h4.08l.1,2.13a4.84,4.84,0,0,1,4.3-2.48,3.87,3.87,0,0,1,1.51.25Z"/><path d="M172.3,9.13a1.36,1.36,0,0,1,1.44-1.42,1.42,1.42,0,0,1,1.06.41,1.37,1.37,0,0,1,.4,1,1.34,1.34,0,0,1-.4,1,1.41,1.41,0,0,1-1.06.4,1.39,1.39,0,0,1-1.06-.4A1.37,1.37,0,0,1,172.3,9.13Zm2.48,24.53h-2.11v-19h2.11Z"/><path d="M182.41,14.62l.07,3.1a7.18,7.18,0,0,1,2.64-2.59,7.31,7.31,0,0,1,3.52-.86c3,0,4.91,1.23,5.72,3.7a7.12,7.12,0,0,1,2.73-2.74,7.55,7.55,0,0,1,3.77-1q6.12,0,6.24,6.69v12.7H205V21.12a5.71,5.71,0,0,0-1.1-3.79,4.48,4.48,0,0,0-3.53-1.23,5.65,5.65,0,0,0-3.83,1.47,5.14,5.14,0,0,0-1.74,3.49v12.6h-2.12V21a5.18,5.18,0,0,0-1.15-3.65A4.56,4.56,0,0,0,188,16.1a5.3,5.3,0,0,0-3.42,1.14,6.64,6.64,0,0,0-2.11,3.37v13h-2.11v-19Z"/><path d="M214.35,14.62l.07,3.1a7.18,7.18,0,0,1,2.64-2.59,7.31,7.31,0,0,1,3.52-.86q4.5,0,5.72,3.7A7.12,7.12,0,0,1,229,15.23a7.54,7.54,0,0,1,3.76-1q6.14,0,6.25,6.69v12.7h-2.11V21.12a5.71,5.71,0,0,0-1.1-3.79,4.48,4.48,0,0,0-3.53-1.23,5.65,5.65,0,0,0-3.83,1.47,5.2,5.2,0,0,0-1.75,3.49v12.6h-2.11V21a5.18,5.18,0,0,0-1.15-3.65A4.56,4.56,0,0,0,220,16.1a5.3,5.3,0,0,0-3.42,1.14,6.64,6.64,0,0,0-2.11,3.37v13h-2.11v-19Z"/><path d="M256.62,31.25c-1.27,1.84-3.29,2.77-6.07,2.77a5.9,5.9,0,0,1-4.63-1.77A7.83,7.83,0,0,1,244.3,27V14.62h2.1V26.75c0,3.62,1.46,5.44,4.4,5.44s5-1.27,5.79-3.79V14.62h2.11v19h-2Z"/><path d="M266.18,14.62l.07,3.26a7.45,7.45,0,0,1,2.67-2.68,6.93,6.93,0,0,1,3.54-.93A5.72,5.72,0,0,1,277,16a7.8,7.8,0,0,1,1.51,5.17V33.66h-2.09V21.15a5.86,5.86,0,0,0-1.09-3.8A4.24,4.24,0,0,0,272,16.1a5.31,5.31,0,0,0-3.46,1.23,7.23,7.23,0,0,0-2.23,3.29v13h-2.09v-19Z"/><path d="M283.84,9.13a1.49,1.49,0,0,1,2.51-1,1.37,1.37,0,0,1,.4,1,1.34,1.34,0,0,1-.4,1,1.41,1.41,0,0,1-1.06.4,1.39,1.39,0,0,1-1.06-.4A1.37,1.37,0,0,1,283.84,9.13Zm2.49,24.53h-2.12v-19h2.12Z"/><path d="M295.32,9.75v4.87h3.94v1.73h-3.94v12.7a4,4,0,0,0,.57,2.36,2.21,2.21,0,0,0,1.91.78,12.68,12.68,0,0,0,1.7-.18l.09,1.71a6.79,6.79,0,0,1-2.25.3,3.76,3.76,0,0,1-3.15-1.26,5.93,5.93,0,0,1-1-3.71V16.35H289.7V14.62h3.51V9.75Z"/><path d="M309.66,30.64l5.56-16h2.27L309.36,36.9l-.42,1q-1.57,3.47-4.84,3.46a6,6,0,0,1-1.62-.24l0-1.74,1.09.1a3.91,3.91,0,0,0,2.51-.76,5.86,5.86,0,0,0,1.63-2.63l.93-2.57-7.18-18.89h2.31Z"/></svg>