<svg id="Layer_1" data-name="Layer 1" xmlns="http://www.w3.org/2000/svg" viewBox="0 0 315.31 35.81"><defs><style>.cls-1{fill:#298b7a;}</style></defs><title>Maili.de</title><path class="cls-1" d="M143,14.73a9,9,0,0,0-9-9H90.51a9.1,9.1,0,0,0-9,9V32.58a9,9,0,0,0,9,9H134a8.87,8.87,0,0,0,9-8.76V14.73ZM88.59,32.58a2.7,2.7,0,0,1,.21-1.28,4,4,0,0,1,.75-1.07l1.07-.75a2.79,2.79,0,0,1,1.28-.21,3,3,0,0,1,1.39.21l1.07.75a4,4,0,0,1,.75,1.07,5.11,5.11,0,0,1,.21,1.28A5.37,5.37,0,0,1,95.11,34,6.06,6.06,0,0,1,94.36,35l-1.07.75L91.9,36l-1.28-.22L89.55,35A7.33,7.33,0,0,1,88.8,34,3,3,0,0,1,88.59,32.58Zm35.06-3.74c0,2.25,1.07,3.42,3.21,3.42a2.86,2.86,0,0,0,2.56-1.39h5c-1,3.43-3.53,5-7.59,5a9.22,9.22,0,0,1-3.53-.54,6.82,6.82,0,0,1-2.67-1.6A6.7,6.7,0,0,1,119,31.3a8.12,8.12,0,0,1-.54-3.31,8.74,8.74,0,0,1,.54-3.32,8,8,0,0,1,1.6-2.45,7.54,7.54,0,0,1,2.67-1.71,10.78,10.78,0,0,1,6.74,0,6.35,6.35,0,0,1,2.56,1.71,5.85,5.85,0,0,1,1.61,2.56,9.41,9.41,0,0,1,.53,3.53v.53Zm-80-8.33h5.24V35.36H43.69v-1.6A5.78,5.78,0,0,1,39.1,35.9a7.18,7.18,0,0,1-5.35-2.35,8.15,8.15,0,0,1-1.6-2.46,10.29,10.29,0,0,1-.54-3.21,9.51,9.51,0,0,1,.54-3,7.83,7.83,0,0,1,1.49-2.46A8.64,8.64,0,0,1,36,20.72a7.18,7.18,0,0,1,3.1-.64A6.2,6.2,0,0,1,43.69,22Zm66.39-9.09h5.34V35.36h-5.34v-1.6a5.36,5.36,0,0,1-4.49,2.14,7,7,0,0,1-3-.64,6.54,6.54,0,0,1-2.35-1.71,6.59,6.59,0,0,1-1.6-2.46,7.81,7.81,0,0,1-.54-3.21,7,7,0,0,1,.54-3,6.22,6.22,0,0,1,1.49-2.46,6.46,6.46,0,0,1,2.36-1.71,7,7,0,0,1,3-.64,5.91,5.91,0,0,1,4.6,1.92ZM3.5,20.51H8.74v1.81a7,7,0,0,1,4.81-2,5.77,5.77,0,0,1,5,2.78,5.8,5.8,0,0,1,5-2.78,5.49,5.49,0,0,1,1.92.32,4,4,0,0,1,1.6,1,3.94,3.94,0,0,1,1.07,1.71,5.62,5.62,0,0,1,.43,2.46v9.62H23.38V28.1a9.59,9.59,0,0,0-.21-1.93,2.49,2.49,0,0,0-.43-1.07,1.28,1.28,0,0,0-.75-.53l-.85-.22c-1.61,0-2.46,1.29-2.46,3.75v7.26H13.44V28.1a9.59,9.59,0,0,0-.21-1.93A3.75,3.75,0,0,0,12.8,25a1.53,1.53,0,0,0-.64-.54l-1.07-.21-.86.21a1.88,1.88,0,0,0-.85.54A3,3,0,0,0,9,26.17a4.85,4.85,0,0,0-.21,1.93v7.26H3.5Zm63.07-9.09V35.36H61.33V11.42ZM57.7,20.51V35.36H52.46V20.51Zm17.63,0V35.36H70.1V20.51ZM37.07,27.88a5.44,5.44,0,0,0,.21,1.39A3.82,3.82,0,0,0,38,30.34l1.07.75a2.87,2.87,0,0,0,1.39.21,2.68,2.68,0,0,0,1.28-.21l1.07-.75a3.82,3.82,0,0,0,.75-1.07A5.61,5.61,0,0,0,43.8,28a4.57,4.57,0,0,0-.21-1.28,4.55,4.55,0,0,0-.75-1.18,3.54,3.54,0,0,0-1.07-.64,2.76,2.76,0,0,0-1.28-.32,2.9,2.9,0,0,0-1.39.32,3.42,3.42,0,0,0-1.07.64,6.06,6.06,0,0,0-.75,1.07A5.11,5.11,0,0,0,37.07,27.88Zm66.48,0a2.87,2.87,0,0,0,.22,1.39,3.82,3.82,0,0,0,.75,1.07l1.07.75a2.66,2.66,0,0,0,1.28.21,2.88,2.88,0,0,0,1.39-.21l1.07-.75a3.76,3.76,0,0,0,.64-1.07,3,3,0,0,0,.32-1.28,2.49,2.49,0,0,0-.32-1.28,4.21,4.21,0,0,0-.64-1.18,3.54,3.54,0,0,0-1.07-.64,2.93,2.93,0,0,0-1.39-.32,2.7,2.7,0,0,0-1.28.32,3.31,3.31,0,0,0-1.07.64,6.06,6.06,0,0,0-.75,1.07A5.63,5.63,0,0,0,103.55,27.88Zm26.3-2A3.4,3.4,0,0,0,128.78,24a3.57,3.57,0,0,0-2-.64,2.78,2.78,0,0,0-1.92.64,3.11,3.11,0,0,0-1.07,1.82Zm-77.71-11a4.8,4.8,0,0,1,.21-1.18l.64-.85a2.53,2.53,0,0,1,1-.64,2.11,2.11,0,0,1,1.17-.32,1.94,1.94,0,0,1,1.07.32,1.55,1.55,0,0,1,1,.64,1.68,1.68,0,0,1,.64.85A2.41,2.41,0,0,1,58,14.84,2.41,2.41,0,0,1,57.8,16a1.68,1.68,0,0,1-.64.85,1.55,1.55,0,0,1-1,.64,1.94,1.94,0,0,1-1.07.32A2.11,2.11,0,0,1,54,17.51a2.53,2.53,0,0,1-1-.64L52.35,16A4.8,4.8,0,0,1,52.14,14.84Zm17.64,0A4.8,4.8,0,0,1,70,13.66l.64-.85a2.57,2.57,0,0,1,1-.64,2.14,2.14,0,0,1,1.18-.32,1.79,1.79,0,0,1,1.07.32,1.55,1.55,0,0,1,1,.64,1.74,1.74,0,0,1,.64.85,2.41,2.41,0,0,1,.22,1.18A2.41,2.41,0,0,1,75.44,16a1.74,1.74,0,0,1-.64.85,1.55,1.55,0,0,1-1,.64,1.79,1.79,0,0,1-1.07.32,2.14,2.14,0,0,1-1.18-.32,2.57,2.57,0,0,1-1-.64L70,16A4.8,4.8,0,0,1,69.78,14.84Z" transform="translate(-3.5 -5.75)"/><path d="M150.58,24a4.06,4.06,0,0,1,.75-2.56,2.57,2.57,0,0,1,3.9-.14V17.66h1.19v9.83h-1.09l-.06-.74a2.4,2.4,0,0,1-2,.87,2.37,2.37,0,0,1-2-1,4.13,4.13,0,0,1-.75-2.57Zm1.18.13a3.06,3.06,0,0,0,.49,1.85,1.57,1.57,0,0,0,1.34.66,1.72,1.72,0,0,0,1.64-1V22.42a1.73,1.73,0,0,0-1.63-1,1.58,1.58,0,0,0-1.35.67A3.36,3.36,0,0,0,151.76,24.1Z" transform="translate(-3.5 -5.75)"/><path d="M161.13,27.62a3,3,0,0,1-2.29-.93,3.42,3.42,0,0,1-.89-2.47V24a4,4,0,0,1,.4-1.84,3,3,0,0,1,1.1-1.26,2.72,2.72,0,0,1,1.53-.46,2.58,2.58,0,0,1,2.1.89,3.83,3.83,0,0,1,.75,2.54v.5h-4.69a2.42,2.42,0,0,0,.59,1.65,1.9,1.9,0,0,0,1.46.63,2.06,2.06,0,0,0,1.06-.26,2.55,2.55,0,0,0,.76-.67l.73.56A2.91,2.91,0,0,1,161.13,27.62ZM161,21.41a1.55,1.55,0,0,0-1.2.52,2.54,2.54,0,0,0-.61,1.46h3.47V23.3a2.21,2.21,0,0,0-.48-1.39A1.5,1.5,0,0,0,161,21.41Z" transform="translate(-3.5 -5.75)"/><path d="M167.4,25.88l1.71-5.31h1.21l-2.48,6.92h-.9l-2.51-6.92h1.21Z" transform="translate(-3.5 -5.75)"/><path d="M174.25,27.62a3,3,0,0,1-2.29-.93,3.41,3.41,0,0,1-.88-2.47V24a4.18,4.18,0,0,1,.39-1.84,3,3,0,0,1,1.1-1.26,2.72,2.72,0,0,1,1.53-.46,2.58,2.58,0,0,1,2.1.89,3.83,3.83,0,0,1,.75,2.54v.5h-4.69a2.48,2.48,0,0,0,.6,1.65,1.86,1.86,0,0,0,1.45.63,2.12,2.12,0,0,0,1.07-.26,2.68,2.68,0,0,0,.76-.67l.72.56A2.91,2.91,0,0,1,174.25,27.62Zm-.15-6.21a1.55,1.55,0,0,0-1.2.52,2.54,2.54,0,0,0-.6,1.46h3.47V23.3a2.27,2.27,0,0,0-.49-1.39A1.49,1.49,0,0,0,174.1,21.41Z" transform="translate(-3.5 -5.75)"/><path d="M179.6,27.49h-1.18V17.66h1.18Z" transform="translate(-3.5 -5.75)"/><path d="M181.18,24a4.17,4.17,0,0,1,.4-1.83,3,3,0,0,1,2.75-1.69,2.88,2.88,0,0,1,2.28,1,3.77,3.77,0,0,1,.88,2.6v.08a4.12,4.12,0,0,1-.39,1.82A3,3,0,0,1,186,27.17a3,3,0,0,1-1.65.45,2.91,2.91,0,0,1-2.28-1,3.73,3.73,0,0,1-.88-2.59Zm1.19.14a2.93,2.93,0,0,0,.54,1.85,1.8,1.8,0,0,0,2.86,0,3.19,3.19,0,0,0,.53-2,2.94,2.94,0,0,0-.54-1.84,1.72,1.72,0,0,0-1.43-.71,1.69,1.69,0,0,0-1.42.7A3.19,3.19,0,0,0,182.37,24.1Z" transform="translate(-3.5 -5.75)"/><path d="M194.82,24.1a4.15,4.15,0,0,1-.72,2.55,2.35,2.35,0,0,1-2,1,2.58,2.58,0,0,1-2-.8v3.33H189V20.57h1.08l.06.76a2.45,2.45,0,0,1,2-.89,2.34,2.34,0,0,1,2,.94,4.15,4.15,0,0,1,.73,2.62ZM193.63,24a3.08,3.08,0,0,0-.49-1.85,1.63,1.63,0,0,0-1.37-.68,1.75,1.75,0,0,0-1.62,1v3.3a1.76,1.76,0,0,0,1.63.95,1.61,1.61,0,0,0,1.35-.67A3.31,3.31,0,0,0,193.63,24Z" transform="translate(-3.5 -5.75)"/><path d="M199.19,27.62a3,3,0,0,1-2.29-.93,3.45,3.45,0,0,1-.88-2.47V24a4.18,4.18,0,0,1,.39-1.84,3.08,3.08,0,0,1,1.1-1.26,2.77,2.77,0,0,1,1.54-.46,2.58,2.58,0,0,1,2.1.89,3.88,3.88,0,0,1,.74,2.54v.5H197.2a2.48,2.48,0,0,0,.6,1.65,1.89,1.89,0,0,0,1.46.63,2.06,2.06,0,0,0,1.06-.26,2.68,2.68,0,0,0,.76-.67l.72.56A2.91,2.91,0,0,1,199.19,27.62Zm-.14-6.21a1.59,1.59,0,0,0-1.21.52,2.61,2.61,0,0,0-.6,1.46h3.47V23.3a2.21,2.21,0,0,0-.49-1.39A1.48,1.48,0,0,0,199.05,21.41Z" transform="translate(-3.5 -5.75)"/><path d="M203,24a4.06,4.06,0,0,1,.75-2.56,2.57,2.57,0,0,1,3.9-.14V17.66h1.19v9.83h-1.09l-.06-.74a2.4,2.4,0,0,1-2,.87,2.37,2.37,0,0,1-2-1,4.13,4.13,0,0,1-.75-2.57Zm1.18.13a3.06,3.06,0,0,0,.49,1.85,1.57,1.57,0,0,0,1.34.66,1.72,1.72,0,0,0,1.64-1V22.42a1.73,1.73,0,0,0-1.63-1,1.58,1.58,0,0,0-1.35.67A3.36,3.36,0,0,0,204.16,24.1Z" transform="translate(-3.5 -5.75)"/><path d="M219.76,24.1a4.09,4.09,0,0,1-.73,2.55,2.35,2.35,0,0,1-2,1,2.42,2.42,0,0,1-2-.93l0,.8H213.9V17.66h1.18v3.67a2.39,2.39,0,0,1,2-.89,2.36,2.36,0,0,1,2,.95,4.26,4.26,0,0,1,.72,2.61ZM218.57,24a3.21,3.21,0,0,0-.46-1.87,1.55,1.55,0,0,0-1.35-.66,1.73,1.73,0,0,0-1.68,1.09v3a1.78,1.78,0,0,0,1.7,1.09A1.53,1.53,0,0,0,218.1,26,3.37,3.37,0,0,0,218.57,24Z" transform="translate(-3.5 -5.75)"/><path d="M223.44,25.75l1.62-5.18h1.26l-2.78,8c-.43,1.15-1.12,1.72-2,1.72l-.23,0-.44-.08v-1l.32,0a1.54,1.54,0,0,0,.94-.25,1.71,1.71,0,0,0,.55-.88l.26-.71-2.47-6.84h1.3Z" transform="translate(-3.5 -5.75)"/><path d="M233.51,27.62a3.21,3.21,0,0,1-2.39-.93,3.41,3.41,0,0,1-.92-2.48V24a4.12,4.12,0,0,1,.4-1.85,3.08,3.08,0,0,1,1.12-1.27,3,3,0,0,1,1.61-.45,2.72,2.72,0,0,1,2.19.9,3.83,3.83,0,0,1,.77,2.55v.63h-4.52a2,2,0,0,0,.57,1.36,1.73,1.73,0,0,0,1.26.5,2.08,2.08,0,0,0,1.74-.87l.84.8a2.67,2.67,0,0,1-1.11,1A3.44,3.44,0,0,1,233.51,27.62Zm-.18-5.93a1.32,1.32,0,0,0-1,.44,2.42,2.42,0,0,0-.5,1.25h3v-.11a2,2,0,0,0-.42-1.19A1.31,1.31,0,0,0,233.33,21.69Z" transform="translate(-3.5 -5.75)"/><path d="M239,20.57l0,.72a2.5,2.5,0,0,1,2-.85,1.91,1.91,0,0,1,1.9,1.06A2.44,2.44,0,0,1,245,20.44a2.16,2.16,0,0,1,1.71.63,2.82,2.82,0,0,1,.57,1.87v4.55h-1.55V23a1.36,1.36,0,0,0-.29-1,1.23,1.23,0,0,0-1-.31,1.29,1.29,0,0,0-.87.29,1.5,1.5,0,0,0-.47.74v4.75h-1.55V22.93a1.11,1.11,0,0,0-1.25-1.22,1.36,1.36,0,0,0-1.32.76v5h-1.56V20.57Z" transform="translate(-3.5 -5.75)"/><path d="M253,27.49a2.77,2.77,0,0,1-.17-.65,2.6,2.6,0,0,1-3.52.18,1.9,1.9,0,0,1-.66-1.47,2,2,0,0,1,.82-1.7,4,4,0,0,1,2.35-.59h1V22.8a1.23,1.23,0,0,0-.3-.86,1.2,1.2,0,0,0-.91-.32,1.33,1.33,0,0,0-.87.27.8.8,0,0,0-.34.67h-1.56a1.72,1.72,0,0,1,.38-1.06,2.56,2.56,0,0,1,1-.78,3.54,3.54,0,0,1,1.45-.28,2.91,2.91,0,0,1,1.94.61,2.18,2.18,0,0,1,.74,1.72v3.12a3.62,3.62,0,0,0,.26,1.49v.11Zm-1.7-1.12a1.76,1.76,0,0,0,.86-.23,1.41,1.41,0,0,0,.61-.6v-1.3H252a2.29,2.29,0,0,0-1.3.3,1,1,0,0,0-.44.85.89.89,0,0,0,.3.71A1.14,1.14,0,0,0,251.33,26.37Z" transform="translate(-3.5 -5.75)"/><path d="M256,18.77a.85.85,0,0,1,.23-.6.87.87,0,0,1,.65-.23.89.89,0,0,1,.65.23.85.85,0,0,1,.23.6.8.8,0,0,1-.23.58.85.85,0,0,1-.65.24.84.84,0,0,1-.65-.24A.8.8,0,0,1,256,18.77Zm1.65,8.72h-1.55V20.57h1.55Z" transform="translate(-3.5 -5.75)"/><path d="M261,27.49h-1.56V17.66H261Z" transform="translate(-3.5 -5.75)"/><path d="M266,18.57a.53.53,0,0,1,.14-.37.51.51,0,0,1,.39-.15.49.49,0,0,1,.38.15.5.5,0,0,1,.15.37.49.49,0,0,1-.15.36.48.48,0,0,1-.38.14.51.51,0,0,1-.39-.14A.52.52,0,0,1,266,18.57Zm.9,8.92h-.76V20.57h.76Z" transform="translate(-3.5 -5.75)"/><path d="M269.7,20.57l0,1.12a2.47,2.47,0,0,1,1-.94,2.61,2.61,0,0,1,1.28-.31,2,2,0,0,1,2.08,1.34,2.48,2.48,0,0,1,1-1,2.66,2.66,0,0,1,1.37-.35c1.48,0,2.24.81,2.27,2.43v4.62h-.77V22.93a2.07,2.07,0,0,0-.4-1.38,1.62,1.62,0,0,0-1.28-.45,2.05,2.05,0,0,0-1.4.54,1.85,1.85,0,0,0-.63,1.27v4.58h-.77V22.87a1.86,1.86,0,0,0-.42-1.33,1.67,1.67,0,0,0-1.27-.44,1.92,1.92,0,0,0-1.24.42,2.45,2.45,0,0,0-.77,1.22v4.75H269V20.57Z" transform="translate(-3.5 -5.75)"/><path d="M281.31,20.57l0,1.12a2.51,2.51,0,0,1,2.24-1.25,2,2,0,0,1,2.08,1.34,2.61,2.61,0,0,1,1-1,2.66,2.66,0,0,1,1.37-.35c1.48,0,2.24.81,2.27,2.43v4.62h-.77V22.93a2,2,0,0,0-.4-1.38,1.62,1.62,0,0,0-1.28-.45,2,2,0,0,0-1.39.54,1.91,1.91,0,0,0-.64,1.27v4.58H285V22.87a1.91,1.91,0,0,0-.41-1.33,1.69,1.69,0,0,0-1.27-.44,1.93,1.93,0,0,0-1.25.42,2.37,2.37,0,0,0-.76,1.22v4.75h-.77V20.57Z" transform="translate(-3.5 -5.75)"/><path d="M296.68,26.61a2.48,2.48,0,0,1-2.2,1,2.16,2.16,0,0,1-1.69-.65,2.84,2.84,0,0,1-.59-1.9v-4.5H293V25c0,1.32.54,2,1.6,2a2,2,0,0,0,2.11-1.37v-5h.77v6.92h-.74Z" transform="translate(-3.5 -5.75)"/><path d="M300.16,20.57l0,1.18a2.84,2.84,0,0,1,1-1,2.58,2.58,0,0,1,1.29-.33,2.12,2.12,0,0,1,1.66.62,2.9,2.9,0,0,1,.55,1.89v4.54h-.76V22.94a2.12,2.12,0,0,0-.4-1.38,1.52,1.52,0,0,0-1.24-.46,1.9,1.9,0,0,0-1.25.45,2.47,2.47,0,0,0-.81,1.2v4.74h-.76V20.57Z" transform="translate(-3.5 -5.75)"/><path d="M306.58,18.57a.53.53,0,0,1,.14-.37.49.49,0,0,1,.38-.15.51.51,0,0,1,.54.52.5.5,0,0,1-.54.5.48.48,0,0,1-.38-.14A.52.52,0,0,1,306.58,18.57Zm.9,8.92h-.77V20.57h.77Z" transform="translate(-3.5 -5.75)"/><path d="M310.75,18.79v1.78h1.43v.62h-1.43v4.62a1.43,1.43,0,0,0,.21.86.8.8,0,0,0,.69.28,4.93,4.93,0,0,0,.62-.06l0,.62a2.57,2.57,0,0,1-.82.11,1.39,1.39,0,0,1-1.15-.46,2.15,2.15,0,0,1-.36-1.35V21.19h-1.27v-.62H310V18.79Z" transform="translate(-3.5 -5.75)"/><path d="M316,26.39l2-5.82h.82l-2.95,8.1-.16.35a1.85,1.85,0,0,1-1.76,1.26,2.05,2.05,0,0,1-.58-.09v-.63l.4,0a1.41,1.41,0,0,0,.91-.28,2.07,2.07,0,0,0,.59-.95l.34-.94L313,20.57h.84Z" transform="translate(-3.5 -5.75)"/></svg>