<?xml version="1.0" encoding="utf-8"?>
<!-- Generator: Adobe Illustrator 23.0.5, SVG Export Plug-In . SVG Version: 6.00 Build 0)  -->
<svg version="1.1" id="Layer_1" xmlns="http://www.w3.org/2000/svg" xmlns:xlink="http://www.w3.org/1999/xlink" x="0px" y="0px"
	 viewBox="0 0 322 48" style="enable-background:new 0 0 322 48;" xml:space="preserve">
<style type="text/css">
	.st0{fill:#0645A3;}
	.st1{fill:#E28706;}
	.st2{fill-rule:evenodd;clip-rule:evenodd;fill:#0645A3;}
	.st3{fill-rule:evenodd;clip-rule:evenodd;fill:#E28706;}
</style>
<g>
	<g id="Ellipse_9_copy_2">
		<g id="Ellipse_9_copy_2-2">
			<path class="st0" d="M177.75,28.92c3.93-1.93,6.09-6.24,5.31-10.54c-0.8-4.32-4.27-7.65-8.69-7.94
				c-2.02-0.14-4.01-0.14-6.01-0.12h-4.44c-0.35,0-0.26-1.39-0.26,5.38v22.54h5.4v-10.1c2.32,3.33,4.58,6.32,6.69,9.32
				c0.23,0.33,0.52,0.77,0.82,0.77h6.57l-6.22-8.87L177.75,28.92z M173.78,24.32c-1.48,0.09-3.12,0.07-4.72,0.07v-8.45
				c1.69,0,3.5-0.12,5.09,0.09c2.11,0.26,3.52,2.21,3.43,4.37C177.49,22.56,175.85,24.2,173.78,24.32z M149.2,10.75
				c-1.62-0.28-3.27-0.28-4.88,0c-7.53,1.36-12.52,8.57-11.16,16.1s8.57,12.52,16.1,11.16c1.16-0.21,2.28-0.57,3.35-1.06l-3.64-4.41
				c-0.72,0.21-1.46,0.31-2.21,0.31c-4.67-0.03-8.43-3.84-8.4-8.51c0.03-4.05,2.93-7.52,6.92-8.25c0.98-0.19,1.98-0.19,2.96,0
				c4.61,0.84,7.66,5.25,6.82,9.86c-0.13,0.74-0.37,1.46-0.69,2.14l3.71,4.3c1.16-1.66,1.96-3.55,2.32-5.54
				C161.74,19.3,156.73,12.11,149.2,10.75z"/>
		</g>
	</g>
	<g id="Rounded_Rectangle_10">
		<g id="Rounded_Rectangle_10-2">
			<path class="st1" d="M158.03,34.65l-8.52-10.28c-0.92-1.01-2.39-1.22-3.26-0.47c-0.87,0.75-0.87,2.14,0.05,3.15l8.52,10.28
				c0.92,1.01,2.37,1.22,3.26,0.47S158.94,35.66,158.03,34.65z"/>
		</g>
	</g>
	<g id="Code">
		<g id="Code-2">
			<path d="M203.27,11.85c-1.75-0.76-3.64-1.14-5.54-1.1c-3.66-0.02-7.18,1.4-9.79,3.97c-1.24,1.24-2.22,2.72-2.89,4.34
				c-1.41,3.46-1.41,7.34,0,10.8c1.34,3.28,3.95,5.89,7.23,7.23c1.73,0.71,3.58,1.07,5.45,1.06c0.8,0.01,1.6-0.05,2.39-0.19
				l1.46-5.35c-1.19,0.58-2.5,0.87-3.83,0.85c-1.17,0.01-2.34-0.21-3.43-0.63c-1.05-0.41-2.01-1.02-2.82-1.81
				c-0.8-0.82-1.44-1.78-1.88-2.84c-0.48-1.18-0.72-2.44-0.7-3.71c-0.02-1.28,0.22-2.55,0.7-3.73c0.44-1.06,1.08-2.02,1.88-2.84
				c0.81-0.79,1.77-1.4,2.82-1.81c1.09-0.43,2.26-0.64,3.43-0.63c1.25-0.04,2.5,0.24,3.62,0.8c1.02,0.56,1.93,1.29,2.7,2.16
				l3.47-3.36C206.35,13.7,204.9,12.61,203.27,11.85z M245.01,19.22l0.28,2.56h-0.28c-0.51-0.82-1.22-1.49-2.07-1.95
				c-0.92-0.54-2.07-0.8-3.43-0.8c-1.13,0-2.25,0.24-3.29,0.7c-2.14,0.99-3.81,2.79-4.63,5c-0.94,2.48-0.94,5.22,0,7.7
				c0.83,2.2,2.49,4,4.63,5c1.03,0.47,2.15,0.71,3.29,0.7c1.36,0,2.51-0.26,3.43-0.8c0.85-0.46,1.56-1.13,2.07-1.95h0.28v2.16h4.51
				V11.34h-4.79V19.22z M244.89,30.75c-0.46,1.19-1.4,2.15-2.58,2.63c-0.58,0.22-1.19,0.33-1.81,0.33c-0.62,0-1.23-0.12-1.81-0.35
				c-0.57-0.24-1.09-0.59-1.53-1.03c-0.46-0.46-0.82-1.01-1.06-1.62c-0.53-1.36-0.53-2.87,0-4.23c0.23-0.61,0.59-1.16,1.06-1.62
				c0.44-0.44,0.96-0.79,1.53-1.03c0.57-0.24,1.19-0.36,1.81-0.35c0.62,0,1.23,0.11,1.81,0.33c1.19,0.48,2.12,1.43,2.58,2.63
				c0.28,0.68,0.42,1.42,0.4,2.16C245.31,29.33,245.18,30.07,244.89,30.75z M270.41,24.72c-0.36-1.11-0.94-2.13-1.71-3.01
				c-0.79-0.85-1.75-1.52-2.82-1.97c-1.22-0.49-2.53-0.73-3.85-0.7c-2.53-0.02-4.95,1.01-6.69,2.84c-0.84,0.87-1.5,1.9-1.95,3.03
				c-0.47,1.17-0.71,2.42-0.7,3.69c-0.01,1.31,0.24,2.61,0.73,3.83c0.45,1.13,1.13,2.16,2,3.03c0.87,0.86,1.9,1.54,3.03,2
				c1.2,0.48,2.49,0.72,3.78,0.7c2.02,0,3.73-0.45,5.14-1.36c1.4-0.88,2.56-2.1,3.36-3.55l-3.99-1.97c-0.42,0.75-1,1.4-1.71,1.88
				c-0.7,0.52-1.62,0.75-2.72,0.75c-0.56,0-1.11-0.07-1.64-0.23c-0.54-0.16-1.04-0.43-1.48-0.77c-0.47-0.35-0.86-0.8-1.15-1.31
				c-0.32-0.58-0.52-1.22-0.59-1.88h13.5c0-0.13,0.02-0.27,0.05-0.4c0-0.14,0-0.28,0.02-0.42v-0.42
				C271.01,27.18,270.82,25.92,270.41,24.72z M257.69,26.29c0.25-0.98,0.83-1.85,1.64-2.47c0.78-0.58,1.73-0.89,2.7-0.87
				c0.65-0.02,1.3,0.09,1.9,0.33c0.49,0.19,0.94,0.48,1.31,0.85c0.33,0.31,0.6,0.68,0.8,1.08c0.17,0.34,0.27,0.7,0.31,1.08
				L257.69,26.29z M226.16,21.71c-0.87-0.84-1.89-1.51-3.01-1.97c-1.22-0.48-2.52-0.72-3.83-0.7c-1.31-0.01-2.61,0.23-3.83,0.7
				c-1.11,0.47-2.13,1.14-3.01,1.97c-0.86,0.86-1.53,1.89-1.97,3.03c-0.94,2.48-0.94,5.22,0,7.7c0.44,1.13,1.11,2.15,1.97,3.01
				c0.86,0.85,1.88,1.53,3.01,2c1.22,0.48,2.52,0.72,3.83,0.7c1.31,0.02,2.61-0.22,3.83-0.7c1.12-0.46,2.14-1.14,3.01-2
				c0.86-0.85,1.53-1.88,1.97-3.01c0.97-2.48,0.97-5.23,0-7.7C227.69,23.61,227.02,22.58,226.16,21.71z M223.67,30.75
				c-0.24,0.6-0.59,1.15-1.03,1.62c-0.44,0.43-0.96,0.77-1.53,1.01c-0.57,0.21-1.17,0.32-1.78,0.33c-1.23,0.03-2.42-0.46-3.29-1.34
				c-0.46-0.46-0.82-1.01-1.06-1.62c-0.5-1.4-0.5-2.92,0-4.32c0.24-0.61,0.6-1.16,1.06-1.62c0.86-0.88,2.05-1.37,3.29-1.34
				c0.61,0,1.21,0.12,1.78,0.33c0.57,0.24,1.08,0.58,1.53,1.01c0.44,0.47,0.79,1.02,1.03,1.62
				C224.17,27.83,224.17,29.36,223.67,30.75z"/>
		</g>
	</g>
	<g id="Rectangle_573_copy_2">
		<g id="Rectangle_573_copy_2-2">
			<path class="st2" d="M123.02,28.85c0-1.01-0.35-1.39-1.34-1.53h-16.57c-1.27,0-1.64,0.38-1.64,1.64v16.32
				c0,0.28,0.05,0.59,0.07,0.89c0.28,0.5,0.83,0.8,1.41,0.75h16.65c1.01,0,1.46-0.45,1.46-1.46
				C123.05,39.93,123.02,34.39,123.02,28.85z M120.04,44.56h-13.57c-0.49,0-0.63-0.14-0.63-0.63c0.05-2.25,0.02-4.51,0.02-6.78
				s0.02-4.53-0.02-6.78c0-0.49,0.14-0.61,0.63-0.61h13.57c0.49,0,0.63,0.12,0.63,0.61c-0.02,4.53-0.02,9.06,0,13.57
				C120.67,44.42,120.53,44.56,120.04,44.56z M95.86,27.35H80.13c-1.62,0-1.9,0.28-1.9,1.9c0,5.49-0.02,10.99-0.02,16.48
				c0.31,0.96,0.59,1.2,1.6,1.2h16.5c1.06,0,1.48-0.42,1.48-1.5s0.02-2.68,0.02-4.01c0-4.06,0-8.1-0.02-12.16
				C97.78,27.65,97.5,27.35,95.86,27.35z M95.41,43.92c0,0.49-0.12,0.63-0.61,0.63H81.21c-0.49,0-0.61-0.14-0.61-0.63
				c0.02-2.28,0-4.58,0-6.86c0-2.28,0.02-4.48,0-6.71c0-0.49,0.14-0.63,0.61-0.63H94.8c0.49,0,0.61,0.14,0.61,0.63V43.92z
				 M79.8,21.67h16.43c1.15,0,1.55-0.4,1.55-1.55V3.68c0-1.17-0.4-1.57-1.57-1.57H79.8c-1.17,0-1.57,0.4-1.57,1.57v16.43
				C78.23,21.27,78.63,21.67,79.8,21.67z M81.23,4.48c2.28,0.02,4.58,0,6.86,0s4.41,0.02,6.64,0c0.47,0,0.68,0.05,0.68,0.63
				c-0.02,4.53-0.02,9.04,0,13.57c0,0.49-0.14,0.61-0.63,0.61H81.21c-0.49,0-0.61-0.16-0.61-0.63c0.02-4.51,0.02-9.04,0-13.57
				C80.6,4.6,80.74,4.48,81.23,4.48z M92.27,7.58H83.7v8.57h8.57V7.58z M83.7,41.43h8.57v-8.59H83.7V41.43z M108.96,41.43h8.59
				v-8.59h-8.59V41.43z"/>
		</g>
	</g>
	<g id="Shape_7_copy">
		<g id="Shape_7_copy-2">
			<path class="st3" d="M121.85,10.66c-1.2,0-2.39,0-3.59,0.05c-0.82,0.02-1.34,0.52-1.34,1.2c0,0.68,0.52,1.15,1.34,1.17
				c0.82,0.02,1.2,0.02,1.81,0c0.61-0.02,0.61,0.09,0.59,0.56c-0.02,1.69-0.02,3.38,0.02,5.07c0,0.47-0.14,0.61-0.59,0.59h-5
				c-0.56,0.02-0.66-0.19-0.66-0.68c0.02-1.85,0.02-3.69,0.02-5.52V3.61c0-1.03-0.42-1.5-1.34-1.5h-8.29
				c-0.89,0-1.34,0.47-1.36,1.34v8.29c0,0.89,0.45,1.31,1.34,1.34c0.89,0.02,2.3,0.02,3.45,0c1.15-0.02,1.34-0.49,1.34-1.17
				c0-0.68-0.52-1.17-1.34-1.2c-0.6-0.04-1.21-0.04-1.81,0c-0.42,0-0.61-0.07-0.61-0.56c0.05-1.69,0.05-3.4,0-5.09
				c0-0.47,0.14-0.56,0.59-0.56c1.67,0.03,3.34,0.03,5,0c0.49,0,0.66,0.12,0.63,0.63c-0.02,1.74,0,3.47,0,5.21v9.86
				c0,1.08,0.42,1.48,1.5,1.48h7.82c1.29,0,1.67-0.35,1.67-1.69v-7.65C123.05,11.24,122.83,10.98,121.85,10.66z M118.14,4.48
				c0.34,0.02,0.69,0.02,1.03,0c1.48,0,1.48,0,1.48,1.46v0.82c0,0.94,0.26,1.24,1.2,1.5c0.94-0.26,1.17-0.56,1.2-1.5
				c0.02-0.94,0-2.09-0.02-3.12c-0.02-1.03-0.31-1.36-1.31-1.55h-3.57c-0.66-0.01-1.21,0.51-1.22,1.17c0,0.02,0,0.03,0,0.05
				C116.93,3.97,117.48,4.49,118.14,4.48C118.14,4.48,118.14,4.48,118.14,4.48z M108.32,19.3h-1.95c-0.42,0.02-0.56-0.12-0.54-0.54
				c0.04-0.67,0.05-1.35,0.02-2.02c-0.01-0.65-0.55-1.17-1.2-1.17c-0.65,0-1.17,0.53-1.17,1.17c0,0.01,0,0.02,0,0.02
				c-0.05,0.59-0.02,1.2-0.02,1.78l0,0v1.71c0,0.05,0,0.1,0.02,0.14c0.05,0.8,0.47,1.24,1.27,1.27h3.57
				c0.66,0.04,1.23-0.46,1.27-1.12c0-0.02,0-0.05,0-0.07C109.59,19.81,109.08,19.32,108.32,19.3z"/>
		</g>
	</g>
	<g id="Code_copy">
		<g id="Code_copy-2">
			<path class="st1" d="M204.68,30.02c-0.87,1.1-1.39,1.76-2.51,2.35l-1.64,5.63c2.23-0.59,4.81-1.34,7.68-4.65L204.68,30.02z"/>
		</g>
	</g>
</g>
</svg>
