<svg id="Layer_1" data-name="Layer 1" xmlns="http://www.w3.org/2000/svg" viewBox="0 0 322 48"><defs><style>.cls-1{fill:#009a71;}.cls-2{fill:#005a42;}.cls-3{fill:#00715c;}.cls-4{fill:#00c09c;}</style></defs><title>TImmunity</title><path class="cls-1" d="M66.08,22.44a50,50,0,0,0-27,13V12.93A9.92,9.92,0,0,1,49,3H59.68A31.35,31.35,0,0,0,66.08,22.44Z"/><path class="cls-2" d="M80.45,12.93v8.86a64.59,64.59,0,0,0-14.37.65A31.35,31.35,0,0,1,59.68,3H70.51A9.92,9.92,0,0,1,80.45,12.93Z"/><path class="cls-3" d="M80.45,21.79V34.46a42.51,42.51,0,0,1-14.37-12A64.59,64.59,0,0,1,80.45,21.79Z"/><path class="cls-4" d="M80.45,34.46v2.21a9.92,9.92,0,0,1-9.94,9.89H49a9.92,9.92,0,0,1-9.94-9.89V35.46a50,50,0,0,1,27-13A42.51,42.51,0,0,0,80.45,34.46Z"/><path d="M111.82,14.57h-8.88V38.71H97V14.57H88.21V9.73h23.61Z"/><path d="M121.57,38.71h-6v-29h6Z"/><path d="M134.9,9.73l7.45,21,7.4-21h7.84v29h-6V30.79l.6-13.67-7.82,21.59h-4.1l-7.8-21.57.59,13.65v7.92h-6v-29Z"/><path d="M179.05,38.71H178V24.25a7.13,7.13,0,0,0-1.42-4.82,5.69,5.69,0,0,0-4.47-1.58A6.86,6.86,0,0,0,166.29,21a10.46,10.46,0,0,0-1.77,4.14v13.6h-1.1V17.18h1.1v5.09a9.15,9.15,0,0,1,3.12-4.06,8.28,8.28,0,0,1,8.93-.24,5.91,5.91,0,0,1,2.26,3.9,7.9,7.9,0,0,1,3.1-3.71,8.75,8.75,0,0,1,4.82-1.38,6.48,6.48,0,0,1,5.19,2q1.69,2,1.72,5.91V38.71h-1.08v-14c0-2.36-.47-4.1-1.42-5.24a5.44,5.44,0,0,0-4.47-1.66A7.51,7.51,0,0,0,180.48,21a6.66,6.66,0,0,0-1.43,3.42Z"/><path d="M214.62,38.71V35.23a7,7,0,0,1-2.79,2.83,9.24,9.24,0,0,1-4.64,1,6.56,6.56,0,0,1-5.28-2.06,9.06,9.06,0,0,1-1.8-6V17.18h1.07V31.09a7.9,7.9,0,0,0,1.55,5.18A5.49,5.49,0,0,0,207.15,38a8.12,8.12,0,0,0,5-1.45,6.59,6.59,0,0,0,2.45-4.26V17.18h1.09V38.71Z"/><path d="M223.57,22.19a9.06,9.06,0,0,1,3.11-4,7.64,7.64,0,0,1,4.53-1.45,6.41,6.41,0,0,1,5.15,2c1.12,1.3,1.69,3.28,1.7,5.92V38.71H237V24.63a8,8,0,0,0-1.42-5.12,5.47,5.47,0,0,0-4.41-1.66,6.7,6.7,0,0,0-4.83,2,10.07,10.07,0,0,0-2.76,5.1V38.71H222.5V17.18h1.07Z"/><path d="M244.51,10.45a1.1,1.1,0,0,1,.32-.79,1,1,0,0,1,.78-.33,1.13,1.13,0,0,1,1.11,1.12,1,1,0,0,1-.33.77,1.06,1.06,0,0,1-.78.32,1,1,0,0,1-.78-.32A1.06,1.06,0,0,1,244.51,10.45Zm1.63,28.26h-1.07V17.18h1.07Z"/><path d="M255.62,11.36v5.82h4.89v1.07h-4.89v15.3a6.18,6.18,0,0,0,.74,3.39,2.8,2.8,0,0,0,2.5,1.09,16.83,16.83,0,0,0,2.13-.17l.18,1a7.34,7.34,0,0,1-2.25.24,4,4,0,0,1-3.36-1.31,6.8,6.8,0,0,1-1-4.11V18.25h-4V17.18h4V11.36Z"/><path d="M272.69,37l.14-.4,7.45-19.46h1.19l-9.63,25.27-.48,1.2c-1,2.51-2.75,3.76-5.13,3.76a4.11,4.11,0,0,1-1.6-.22l0-1a5.85,5.85,0,0,0,1.46.17,4.05,4.05,0,0,0,2.8-1,7.66,7.66,0,0,0,1.93-3.2l1.32-3.56-8.58-21.41h1.17Z"/></svg>